<?xml version="1.0" encoding="UTF-8" standalone="no"?><!DOCTYPE svg PUBLIC "-//W3C//DTD SVG 1.1//EN" "http://www.w3.org/Graphics/SVG/1.1/DTD/svg11.dtd"><svg width="100%" height="100%" viewBox="0 0 879 831" version="1.1" xmlns="http://www.w3.org/2000/svg" xmlns:xlink="http://www.w3.org/1999/xlink" xml:space="preserve" xmlns:serif="http://www.serif.com/" style="fill-rule:evenodd;clip-rule:evenodd;stroke-linejoin:round;stroke-miterlimit:1.41421;"><path d="M462.75,831l-47.25,0c-88.886,0 -171.291,-27.972 -238.885,-75.585c0.829,-2.19 1.261,-4.493 1.255,-6.915c-0.15,-57.373 6.505,-154.561 -57,-219.75c-33.729,-34.623 -83.5,-31.625 -111.75,-27l-0.135,0.023c-5.888,-27.835 -8.985,-56.695 -8.985,-86.273c0,-229.32 186.179,-415.5 415.5,-415.5l47.25,0c229.321,0 415.5,186.18 415.5,415.5c0,29.578 -3.097,58.438 -8.985,86.273l-0.135,-0.023c-28.25,-4.625 -78.021,-7.623 -111.75,27c-63.505,65.189 -56.85,162.377 -57,219.75c-0.006,2.422 0.426,4.725 1.255,6.915c-67.593,47.613 -149.997,75.584 -238.885,75.585Zm-219.66,-667.5c0,0 -179.199,157.734 -49.5,358.5c114.47,177.193 374.406,156.562 382.5,74.25c4.54,-46.167 -16.5,-83.342 -96.75,-90.75c-89.256,-8.239 -154.937,-29.947 -183,-79.5c-28.116,-49.645 -27,-74.25 -27,-74.25c0,0 68.909,-27.477 55.5,-68.25c-12.47,-37.916 -42.16,-46.434 -55.5,-62.25c-13.341,-15.816 -26.25,-57.75 -26.25,-57.75Zm396.57,404.939c0,0 179.199,-157.735 49.5,-358.5c-114.47,-177.193 -374.406,-156.562 -382.5,-74.25c-4.54,46.167 16.5,83.342 96.75,90.75c89.256,8.239 154.937,29.947 183,79.5c28.116,49.645 27,74.25 27,74.25c0,0 -68.909,27.477 -55.5,68.25c12.47,37.916 42.16,46.434 55.5,62.25c13.341,15.816 26.25,57.75 26.25,57.75Zm-198.285,-286.439c44.498,0 80.625,36.127 80.625,80.625c0,44.498 -36.127,80.625 -80.625,80.625c-44.498,0 -80.625,-36.127 -80.625,-80.625c0,-44.498 36.127,-80.625 80.625,-80.625Z" style="fill:#fae232;"/></svg>