<?xml version="1.0" encoding="UTF-8" standalone="no"?><!DOCTYPE svg PUBLIC "-//W3C//DTD SVG 1.1//EN" "http://www.w3.org/Graphics/SVG/1.1/DTD/svg11.dtd"><svg width="100%" height="100%" viewBox="0 0 342 343" version="1.1" xmlns="http://www.w3.org/2000/svg" xmlns:xlink="http://www.w3.org/1999/xlink" xml:space="preserve" xmlns:serif="http://www.serif.com/" style="fill-rule:evenodd;clip-rule:evenodd;stroke-linejoin:round;stroke-miterlimit:1.41421;"><path d="M203.839,0.033c-1.693,-0.213 -2.75,0.594 -3.906,2.737c-4.706,8.707 -9.756,17.169 -14.65,25.782c-1.812,3.187 -3.994,4.9 -8.2,4.493c-7.35,-0.718 -14.75,-0.681 -22.075,0.582c-3.312,0.575 -5.219,-0.294 -7.031,-3.125c-5.544,-8.669 -11.419,-17.125 -16.988,-25.782c-1.562,-2.425 -2.887,-2.756 -5.468,-1.562c-16.838,7.775 -33.619,15.587 -50.588,23.05c-3.106,1.362 -3.137,2.669 -2.344,5.469c2.775,9.712 5.025,19.581 7.813,29.293c0.906,3.157 0.681,5.263 -1.956,7.425c-5.888,4.825 -11.213,10.425 -15.625,16.6c-2.338,3.282 -4.875,3.413 -8.2,2.738c-9.707,-1.988 -19.45,-3.663 -29.1,-5.863c-3.119,-0.706 -4.388,0 -5.469,2.932c-6.363,17.212 -12.969,34.425 -19.531,51.562c-1.107,2.875 -0.507,4.125 2.343,5.663c8.707,4.706 17.163,9.956 25.782,14.843c3.206,1.823 4.55,3.794 4.1,8.009c-0.794,7.34 -0.25,14.939 0.975,22.265c0.556,3.33 -0.525,5.045 -3.319,6.836c-8.669,5.555 -17.119,11.624 -25.781,17.187c-2.457,1.58 -2.544,2.718 -1.369,5.274c7.769,16.835 15.394,33.81 22.85,50.781c1.375,3.116 2.875,3.142 5.669,2.344c9.712,-2.777 19.518,-5.247 29.293,-7.812c1.45,-0.382 2.788,-0.675 4.3,-0.977c0.725,0.853 1.325,1.639 1.95,2.343c5.194,5.839 10.882,11.289 17.188,15.821c3.412,2.451 4.075,4.972 3.319,8.594c-2.007,9.697 -3.857,19.25 -6.05,28.906c-0.707,3.093 -0.025,4.575 2.925,5.664c17.218,6.358 34.431,12.769 51.562,19.336c2.875,1.1 4.319,0.706 5.863,-2.149c4.706,-8.709 9.743,-17.178 14.65,-25.781c1.8,-3.158 3.762,-4.746 8.006,-4.297c7.15,0.758 14.606,0.818 21.681,-0.585c4.319,-0.858 6.2,0.846 8.2,3.906c5.425,8.297 11.05,16.465 16.406,24.804c1.55,2.411 2.857,2.77 5.469,1.563c16.831,-7.78 33.619,-15.383 50.588,-22.852c3.068,-1.348 3.156,-2.833 2.343,-5.664c-2.787,-9.712 -5.037,-19.582 -7.812,-29.297c-0.9,-3.136 -0.694,-5.255 1.95,-7.422c5.9,-4.82 11.2,-10.241 15.625,-16.406c2.319,-3.227 4.831,-3.626 8.206,-2.929c9.7,2.004 19.45,3.667 29.1,5.859c3.094,0.703 4.381,0.22 5.469,-2.734c6.362,-17.214 12.769,-34.428 19.337,-51.563c1.094,-2.859 0.713,-4.311 -2.15,-5.859c-8.706,-4.706 -17.175,-9.945 -25.781,-14.844c-3.181,-1.812 -4.769,-3.763 -4.294,-8.008c0.807,-7.337 0.438,-14.743 -0.781,-22.07c-0.556,-3.318 0.513,-5.23 3.319,-7.03c8.669,-5.556 16.931,-11.619 25.587,-17.188c2.432,-1.568 2.757,-2.693 1.563,-5.275c-7.775,-16.831 -15.394,-33.806 -22.856,-50.781c-1.363,-3.106 -2.869,-2.944 -5.663,-2.15c-9.9,2.825 -19.775,5.231 -29.687,8.013c-2.732,0.762 -4.594,0.331 -6.444,-1.957c-4.8,-5.931 -10.469,-10.981 -16.6,-15.431c-3.375,-2.444 -4.088,-4.944 -3.325,-8.594c2.025,-9.693 3.862,-19.443 6.056,-29.1c0.706,-3.1 0.019,-4.575 -2.931,-5.662c-17.213,-6.363 -34.425,-12.775 -51.563,-19.338c-0.718,-0.275 -1.387,-0.512 -1.95,-0.587Zm-32.812,80.669c23.112,0 46.231,8.925 63.869,26.562c35.268,35.269 35.268,92.46 0,127.731c-35.275,35.272 -92.463,35.272 -127.738,0c-35.269,-35.271 -35.275,-92.462 0,-127.731c17.638,-17.637 40.756,-26.562 63.869,-26.562Z" style="fill:#fff;fill-rule:nonzero;"/></svg>