<?xml version="1.0" encoding="UTF-8" standalone="no"?><!DOCTYPE svg PUBLIC "-//W3C//DTD SVG 1.1//EN" "http://www.w3.org/Graphics/SVG/1.1/DTD/svg11.dtd"><svg width="100%" height="100%" viewBox="0 0 8281 6414" version="1.1" xmlns="http://www.w3.org/2000/svg" xmlns:xlink="http://www.w3.org/1999/xlink" xml:space="preserve" xmlns:serif="http://www.serif.com/" style="fill-rule:evenodd;clip-rule:evenodd;stroke-linejoin:round;stroke-miterlimit:1.41421;"><path d="M8280.61,3014.96c0,-128.01 -103.927,-231.938 -231.937,-231.938l-2741.62,0c-128.01,0 -231.938,103.928 -231.938,231.938l0,463.875c0,128.009 103.928,231.937 231.938,231.937l2741.62,0c128.01,0 231.937,-103.928 231.937,-231.937l0,-463.875Z" style="fill:#fff;"/><path d="M5770.92,5356.28c128.01,0 231.937,-103.928 231.937,-231.937l0,-956.625c0,-128.01 -103.927,-231.938 -231.937,-231.938l-463.875,0c-128.01,0 -231.938,103.928 -231.938,231.938l0,956.625c0,128.009 103.928,231.937 231.938,231.937l463.875,0Z" style="fill:#fff;"/><path d="M7648.36,4167.71c0,-128.01 -103.927,-231.938 -231.937,-231.938l-956.625,0c-128.01,0 -231.938,103.928 -231.938,231.938l0,463.875c0,128.009 103.928,231.937 231.938,231.937l956.625,0c128.01,0 231.937,-103.928 231.937,-231.937l0,-463.875Z" style="fill:#fff;"/><path d="M5956.36,709.464c0,-128.01 -103.928,-231.938 -231.937,-231.938l-1862.44,0c-128.01,0 -231.937,103.928 -231.937,231.938l0,463.875c0,128.009 103.927,231.937 231.937,231.937l1862.44,0c128.009,0 231.937,-103.928 231.937,-231.937l0,-463.875Z" style="fill:#fff;"/><path d="M7260.09,1862.21c0,-128.01 -103.927,-231.938 -231.937,-231.938l-3166.17,0c-128.01,0 -231.937,103.928 -231.937,231.938l0,463.875c0,128.009 103.927,231.937 231.937,231.937l3166.17,0c128.01,0 231.937,-103.928 231.937,-231.937l0,-463.875Z" style="fill:#fff;"/><path d="M4618.17,6413.07c128.01,0 231.937,-103.928 231.937,-231.938l0,-3166.17c0,-128.01 -103.927,-231.938 -231.937,-231.938l-463.875,0c-128.01,0 -231.938,103.928 -231.938,231.938l0,3166.17c0,128.01 103.928,231.938 231.938,231.938l463.875,0Z" style="fill:#fff;"/><path d="M3630.05,4167.71c0,-128.01 -103.928,-231.938 -231.938,-231.938l-3166.17,0c-128.009,0 -231.937,103.928 -231.937,231.938l0,463.875c0,128.009 103.928,231.937 231.937,231.937l3166.17,0c128.01,0 231.938,-103.928 231.938,-231.937l0,-463.875Z" style="fill:#fff;"/><path d="M3630.05,3014.96c0,-128.01 -103.928,-231.938 -231.938,-231.938l-1862.44,0c-128.01,0 -231.938,103.928 -231.938,231.938l0,463.875c0,128.009 103.928,231.937 231.938,231.937l1862.44,0c128.01,0 231.938,-103.928 231.938,-231.937l0,-463.875Z" style="fill:#fff;"/><path d="M846.797,3710.78c128.01,0 231.937,-103.928 231.937,-231.937l0,-1259.4c0,-128.01 -103.927,-231.938 -231.937,-231.938l-463.875,0c-128.01,0 -231.938,103.928 -231.938,231.938l0,1259.4c0,128.009 103.928,231.937 231.938,231.937l463.875,0Z" style="fill:#fff;"/><path d="M3166.17,2558.03c128.01,0 231.937,-103.928 231.937,-231.937l0,-2094.15c0,-128.009 -103.927,-231.937 -231.937,-231.937l-463.875,0c-128.01,0 -231.938,103.928 -231.938,231.937l0,2094.15c0,128.009 103.928,231.937 231.938,231.937l463.875,0Z" style="fill:#fff;"/><path d="M2006.48,2558.03c128.01,0 231.938,-103.928 231.938,-231.937l0,-2094.15c0,-128.009 -103.928,-231.937 -231.938,-231.937l-463.875,0c-128.01,0 -231.937,103.928 -231.937,231.937l0,2094.15c0,128.009 103.927,231.937 231.937,231.937l463.875,0Z" style="fill:#fff;"/></svg>