<?xml version="1.0" encoding="UTF-8" standalone="no"?><!DOCTYPE svg PUBLIC "-//W3C//DTD SVG 1.1//EN" "http://www.w3.org/Graphics/SVG/1.1/DTD/svg11.dtd"><svg width="100%" height="100%" viewBox="0 0 929 310" version="1.1" xmlns="http://www.w3.org/2000/svg" xmlns:xlink="http://www.w3.org/1999/xlink" xml:space="preserve" xmlns:serif="http://www.serif.com/" style="fill-rule:evenodd;clip-rule:evenodd;stroke-linejoin:round;stroke-miterlimit:1.41421;"><rect x="397.037" y="66.194" width="104.947" height="177.047" style="fill:#fff;"/><rect x="526.035" y="66.194" width="104.947" height="177.047" style="fill:#fff;"/><circle cx="345.322" cy="224.837" r="18.404" style="fill:#fff;"/><path d="M196.862,246.322l-0.543,-0.913c0,0 -0.407,-0.797 -0.407,-0.797c-0.114,-0.26 -0.161,-0.286 -0.407,-0.944c0,0 -0.007,0.002 -0.273,-0.729c0,0 -0.341,-1.13 -0.341,-1.13c-0.239,-1.047 -0.23,-1.048 -0.23,-1.048c-0.306,-1.781 -0.238,-1.79 -0.238,-1.79c-0.043,-0.811 -0.043,-0.883 -0.043,-0.883c0,0 -0.021,-0.772 0.059,-1.498c0.093,-0.842 0.555,-2.861 0.686,-3.351c0.157,-0.591 0.374,-1.164 0.562,-1.746l57.311,-134.11l-68.598,0c0,0 -1.364,-0.068 -1.364,-0.068c-0.377,-0.038 -0.377,-0.036 -0.786,-0.091c-0.247,-0.033 -0.492,-0.076 -0.737,-0.121c-0.602,-0.111 -0.683,-0.143 -0.774,-0.165c0,0 -0.363,-0.058 -1.263,-0.358l-1.741,-0.688c0,0 -1.619,-0.883 -1.619,-0.883c-0.478,-0.318 -0.6,-0.402 -0.6,-0.402c0,0 -0.469,-0.338 -0.469,-0.338c-1.286,-0.985 -0.817,-0.569 -1.721,-1.507c0,0 -0.781,-0.845 -0.781,-0.845c-0.544,-0.657 -0.535,-0.664 -0.535,-0.664c-0.552,-0.753 -0.543,-0.759 -0.543,-0.759c0,0 -0.466,-0.737 -0.466,-0.737c0,0 -0.458,-0.829 -0.458,-0.829c-0.434,-0.896 -0.425,-0.9 -0.425,-0.9c-0.268,-0.671 -0.318,-0.812 -0.318,-0.812c0,0 -0.266,-0.78 -0.266,-0.78c-0.423,-1.522 -0.365,-1.3 -0.567,-2.651c0,0 -0.101,-1.048 -0.101,-1.048c0,0 -0.031,-0.714 -0.031,-0.714c0,0 0.004,-10.324 0.004,-10.324c0,0 0.039,-0.789 0.039,-0.789c0.093,-1.02 0.135,-1.382 0.256,-2.004l-0.049,0.29c0,0 0.307,-1.584 0.122,-0.66l0.032,-0.157c0,0 -0.296,1.111 0.244,-0.994c0,0 0.087,-0.287 0.18,-0.58c0.202,-0.623 0.211,-0.62 0.211,-0.62l0.425,-1.027c0.905,-1.924 0.657,-1.33 1.086,-1.996c0,0 0.448,-0.657 0.448,-0.657c0,0 0.482,-0.635 0.482,-0.635c0.319,-0.385 0.726,-0.838 0.726,-0.838l0.666,-0.672c0,0 0.389,-0.347 0.389,-0.347c0.469,-0.402 0.663,-0.548 0.663,-0.548l0.947,-0.679l0.586,-0.371c0.694,-0.39 1.103,-0.588 1.103,-0.588c0,0 0.855,-0.384 0.855,-0.384c0.952,-0.37 0.406,-0.178 1.155,-0.415l0.882,-0.254c1.303,-0.325 1.333,-0.287 1.747,-0.346c0,0 1.201,-0.13 1.201,-0.13c0.388,-0.026 0.776,-0.04 1.164,-0.048l103.584,0l0.473,0.01c2.15,0.094 1.887,0.159 2.395,0.248c0,0 0.999,0.204 0.999,0.204c0.65,0.163 0.378,0.078 1.126,0.315l1.403,0.514c0,0 2.305,1.244 2.305,1.244c0.558,0.391 0.942,0.68 0.942,0.68l0.225,0.172l0.439,0.376c0.704,0.629 0.226,0.162 0.913,0.876c0,0 1.004,1.151 1.004,1.151c0,0 0.674,0.937 0.674,0.937c0,0 0.53,0.854 0.53,0.854l0.351,0.643c0,0 0.325,0.684 0.325,0.684c0.133,0.299 0.174,0.377 0.502,1.244c0,0 0.314,0.983 0.314,0.983l0.19,0.741c0,0 0.229,1.161 0.229,1.161c0,0 0.112,0.825 0.112,0.825c0.044,0.465 0.082,0.983 0.088,1.11l-0.018,-0.266l0.039,0.88l0,-0.132l0.007,0.172l0,9.261c0,0 -0.029,1.115 -0.029,1.115c-0.035,0.684 -0.038,0.683 -0.038,0.683c-0.089,1.165 0.008,0.359 -0.206,2.074l-0.135,0.952c-0.162,0.939 -0.219,1.242 -0.219,1.242c0,0 -0.295,1.386 -0.295,1.386l-0.123,0.516c-0.232,0.883 -0.324,1.223 -0.324,1.223c0,0 -0.417,1.398 -0.417,1.398c-0.485,1.491 -0.323,0.99 -0.441,1.316c0,0 -0.521,1.416 -0.521,1.416l-62.594,146.48l-0.362,0.781c-0.373,0.755 -0.915,1.775 -0.915,1.775c-0.545,0.972 -0.637,1.101 -0.637,1.101c0,0 -0.511,0.803 -0.511,0.803c-0.331,0.496 -0.673,0.98 -0.673,0.98c0,0 -0.31,0.432 -0.429,0.578c0,0 -0.373,0.474 -0.373,0.474c-0.6,0.716 -1.011,1.156 -1.011,1.156c0,0 -0.231,0.231 -0.231,0.231c-0.178,0.185 -0.181,0.181 -0.369,0.356l-0.907,0.773c-0.368,0.282 -0.295,0.258 -0.87,0.635c0,0 -1.039,0.643 -1.039,0.643c0,0 -0.508,0.269 -0.508,0.269c-0.388,0.194 -0.539,0.289 -1.341,0.601c0,0 -1.142,0.396 -1.142,0.396c-0.661,0.191 -0.663,0.186 -0.873,0.237c0,0 -0.882,0.187 -0.882,0.187c-0.776,0.129 -0.841,0.13 -0.841,0.13c0,0 -0.883,0.09 -0.883,0.09c-0.52,0.036 -1.18,0.051 -1.187,0.052l-13.052,0c0,0 -0.806,-0.032 -0.806,-0.032c-0.953,-0.075 -0.923,-0.086 -1.174,-0.121c0,0 -1.098,-0.195 -1.098,-0.195c-0.263,-0.062 -0.46,-0.109 -0.46,-0.109c-0.625,-0.165 -1.376,-0.421 -1.376,-0.421c-0.856,-0.321 -0.946,-0.338 -1.892,-0.842l-0.999,-0.582l-0.922,-0.647c-0.793,-0.64 -1.133,-0.966 -1.133,-0.966l-0.615,-0.61c-0.352,-0.381 -0.352,-0.382 -0.474,-0.525c0,0 -0.769,-0.952 -0.769,-0.952l-0.166,-0.241l0.139,0.19c0,0 -0.435,-0.626 -0.565,-0.811Zm0,0l0.011,0.018l0.554,0.793c0,0 -1.088,-1.567 -0.335,-0.474c-0.097,-0.142 -0.216,-0.314 -0.216,-0.314l-0.003,-0.005l-0.046,-0.068l0.035,0.05Z" style="fill:#fff;fill-rule:nonzero;"/><path d="M758.982,242.765c0,0 -0.54,0.838 -0.54,0.838c-0.409,0.579 -0.386,0.481 -0.578,0.685c0,0 -0.865,0.789 -0.865,0.789c-0.601,0.451 -0.048,0.098 -0.696,0.48c0,0 -0.776,0.414 -0.776,0.414c-0.471,0.199 -0.473,0.196 -0.473,0.196c0,0 -0.669,0.216 -0.741,0.234c-1.124,0.273 -0.797,0.166 -1.059,0.203c-0.464,0.066 -0.284,0.039 -0.568,0.052c0,0 -0.321,0.014 -0.321,0.014c0,0 -9.622,-0.003 -9.622,-0.003c0,0 -0.258,-0.011 -0.258,-0.011c0,0 -0.586,-0.054 -0.586,-0.054c-0.242,-0.023 -0.053,0.041 -1.031,-0.201c-0.805,-0.199 -0.058,0.136 -1.268,-0.468c0,0 -0.634,-0.345 -0.634,-0.345c-0.927,-0.601 -0.496,-0.28 -1.007,-0.757c0,0 -0.546,-0.544 -0.546,-0.544c-0.652,-0.752 -0.629,-0.771 -0.827,-1.108c0,0 -0.241,-0.42 -0.241,-0.42c-0.509,-1.018 -0.386,-0.859 -0.438,-1.008c0,0 -0.279,-0.986 -0.279,-0.986c-0.3,-1.501 -0.155,-0.891 -0.172,-1.284c0,0 -0.017,-0.388 -0.017,-0.388c0,0 -0.01,-1.402 -0.01,-1.402c0,0 -0.731,0.646 -1.362,1.171c-0.468,0.388 -0.495,0.398 -0.7,0.561c0,0 -0.432,0.337 -0.865,0.658c-0.13,0.097 -0.129,0.098 -0.261,0.193c-0.514,0.37 -1.233,0.864 -1.233,0.864c-0.157,0.105 -0.067,0.046 -0.396,0.264c-0.603,0.399 -1.459,0.922 -1.459,0.922c-0.502,0.301 -1.01,0.596 -1.519,0.883c-0.499,0.28 -0.527,0.291 -0.735,0.401c-0.453,0.241 -1.035,0.537 -1.035,0.537c-0.146,0.07 -0.146,0.071 -0.292,0.143c0,0 -0.475,0.228 -0.475,0.228c-0.885,0.399 -0.561,0.251 -1.233,0.548c-1.776,0.751 -2.15,0.833 -2.15,0.833c-1.141,0.394 -1.709,0.562 -1.709,0.562c-1.503,0.441 -0.975,0.286 -1.2,0.349c-0.322,0.091 -0.56,0.152 -1.442,0.369c0,0 -1.109,0.254 -1.109,0.254c-2.175,0.456 -2.653,0.5 -2.653,0.5c-0.341,0.052 -0.38,0.068 -1.159,0.174l-0.988,0.133c-3.229,0.38 -1.72,0.2 -3.048,0.304c-0.557,0.043 -1.114,0.075 -1.672,0.106c-0.459,0.025 -0.636,0.032 -0.636,0.032c-1.212,0.05 -1.405,0.052 -1.953,0.059c0,0 -1.1,0.014 -1.1,0.014c-0.369,0 -0.739,0.001 -1.108,-0.002c-1.205,-0.012 -1.842,-0.057 -1.842,-0.057c-1.017,-0.054 -1.668,-0.108 -1.668,-0.108c-0.666,-0.06 -1.315,-0.126 -1.315,-0.126c-1.178,-0.131 -0.219,-0.022 -1.453,-0.182c-1.128,-0.167 -1.285,-0.123 -3.366,-0.603c0,0 -0.942,-0.213 -0.942,-0.213c-1.273,-0.318 -1.142,-0.291 -1.392,-0.36c0,0 -2.296,-0.696 -2.458,-0.751c-1.359,-0.457 -1.361,-0.483 -1.361,-0.483c-0.999,-0.387 -2.378,-0.969 -2.378,-0.969c-0.489,-0.225 -0.98,-0.441 -1.46,-0.681c-0.706,-0.338 -0.161,-0.052 -1.544,-0.789c-1.602,-0.852 -1.778,-1.003 -1.778,-1.003c0,0 -1.2,-0.724 -2.08,-1.332c0,0 -1.715,-1.24 -1.715,-1.24l-1.098,-0.872c-1.397,-1.176 -1.707,-1.499 -1.707,-1.499c0,0 -0.855,-0.825 -0.855,-0.825c-0.479,-0.493 -1.135,-1.184 -1.135,-1.184c-0.405,-0.454 -0.978,-1.114 -0.978,-1.114c-0.321,-0.384 -0.634,-0.774 -0.942,-1.169c-0.502,-0.644 -0.322,-0.403 -0.887,-1.19c0,0 -0.43,-0.621 -0.43,-0.621c-0.249,-0.369 -0.572,-0.874 -0.572,-0.874c-0.86,-1.356 -0.825,-1.381 -1.049,-1.791c0,0 -0.418,-0.792 -0.418,-0.792c-0.195,-0.39 -0.446,-0.921 -0.446,-0.921c-0.431,-0.927 -0.415,-0.935 -0.415,-0.935c0,-0.001 -0.191,-0.419 -0.582,-1.493l-0.251,-0.721c-0.298,-0.959 -0.162,-0.489 -0.336,-1.089c0,0 -0.299,-1.115 -0.299,-1.115c-0.083,-0.35 -0.104,-0.443 -0.104,-0.443c-0.279,-1.284 -0.266,-1.287 -0.266,-1.287c-0.312,-1.795 -0.251,-1.598 -0.282,-1.894l-0.066,-0.591c-0.06,-0.703 -0.059,-0.703 -0.059,-0.703l-0.065,-1.062c-0.022,-1.044 -0.024,-1.044 -0.024,-1.044l0.009,-1.238c0.018,-0.454 0.012,-0.455 0.037,-0.923c0,0 0.043,-0.689 0.043,-0.689c0.055,-0.681 0.192,-1.895 0.192,-1.895c0.097,-0.698 0.099,-0.829 0.268,-1.672c0,0 0.174,-0.877 0.174,-0.877c0.06,-0.263 0.229,-0.973 0.229,-0.973c0.245,-0.926 0.48,-1.696 0.48,-1.696c0.364,-1.093 0.232,-0.702 0.28,-0.837c0.202,-0.577 0.515,-1.358 0.515,-1.358c0.326,-0.747 0.321,-0.764 0.468,-1.076c0,0 0.29,-0.621 0.29,-0.621c0.539,-1.044 0.536,-1.045 0.536,-1.045c0.818,-1.493 0.249,-0.524 0.887,-1.531c0,0 0.587,-0.915 0.587,-0.915c0.82,-1.188 0.8,-1.132 1.041,-1.453c0.906,-1.194 0.937,-1.174 0.937,-1.174c0,0 1.695,-1.863 1.739,-1.908c0.592,-0.603 0.871,-0.868 1.337,-1.293c0,0 0.328,-0.294 0.341,-0.306c1.324,-1.184 2.185,-1.812 2.185,-1.812c1.184,-0.902 1.547,-1.138 1.547,-1.138c0,0 1.612,-1.09 1.612,-1.09c0.332,-0.212 0.624,-0.398 0.624,-0.398c2.134,-1.311 4.646,-2.654 7.144,-3.755c0.501,-0.221 0.668,-0.303 1.704,-0.715c0,0 1.081,-0.441 2.244,-0.86c0,0 1.025,-0.364 1.025,-0.364c0.584,-0.2 1.289,-0.434 1.289,-0.434c0.579,-0.187 0.804,-0.255 0.804,-0.255c0.988,-0.304 1.98,-0.6 2.98,-0.866c0,0 1.11,-0.294 1.11,-0.294c0.565,-0.14 1.13,-0.28 1.696,-0.413c1.006,-0.236 1.376,-0.313 2.011,-0.449c0.344,-0.074 0.13,-0.035 0.888,-0.184c0,0 1.478,-0.289 1.478,-0.289c0.692,-0.126 1.516,-0.27 1.516,-0.27c0.723,-0.117 1.445,-0.238 2.169,-0.347l28.688,-4.017l0,-3.419c-0.008,-0.446 -0.006,-0.476 -0.008,-0.638c-0.018,-1.01 -0.081,-2.017 -0.21,-3.015c0,0 -0.105,-0.754 -0.132,-0.919c-0.137,-0.838 -0.428,-1.999 -0.428,-1.999c-0.15,-0.555 0.058,-0.045 -0.497,-1.56c-0.249,-0.681 -0.477,-1.245 -1.014,-2.199c-0.093,-0.166 -0.609,-0.985 -0.609,-0.985c-0.116,-0.166 -0.006,-0.086 -0.602,-0.815c-0.523,-0.639 -0.579,-0.682 -0.749,-0.856c-1.014,-1.042 -2.174,-1.912 -3.43,-2.613c-0.421,-0.235 -1.023,-0.524 -1.023,-0.524c-1.238,-0.551 -1.247,-0.532 -1.247,-0.532c-2.65,-0.993 -2.334,-0.755 -2.627,-0.829c-1.326,-0.334 -1.337,-0.302 -1.69,-0.372c0,0 -0.716,-0.127 -0.716,-0.127c-2.976,-0.462 -0.889,-0.19 -2.653,-0.333c0,0 -2.382,-0.148 -2.382,-0.148c-0.381,-0.011 -0.459,-0.02 -1.231,-0.026c-0.441,-0.003 -0.548,-0.005 -0.548,-0.005c0,0 -0.958,0.013 -0.958,0.013c-1.011,0.019 -2.023,0.081 -3.027,0.185c-0.011,0.001 -1.541,0.196 -1.943,0.261c-0.106,0.017 -0.212,0.035 -0.317,0.055c-1.257,0.237 -2.478,0.534 -3.724,0.976c-0.179,0.063 -1.312,0.514 -1.77,0.727c-0.707,0.328 0.015,-0.11 -1.831,1.009c0,0 -0.704,0.469 -0.704,0.469c-0.748,0.523 -1.496,1.103 -1.496,1.103c-0.714,0.567 -1.401,1.169 -2.045,1.813c0,0 -1.067,1.141 -1.067,1.141c-0.184,0.218 -0.187,0.21 -0.777,0.956c-0.358,0.453 -0.579,0.781 -0.994,1.445c-0.296,0.474 -0.564,0.956 -0.779,1.469c-0.168,0.373 -0.013,0.143 -0.501,1.022c0,0 -0.339,0.588 -0.339,0.588c-0.369,0.589 -0.317,0.481 -0.517,0.741c0,0 -0.207,0.256 -0.424,0.496c-0.054,0.06 0.154,-0.155 -0.246,0.25c-0.177,0.178 -0.186,0.17 -0.186,0.17c0,0 -0.56,0.429 -0.56,0.429c-0.665,0.435 -0.035,0.105 -1.019,0.559c0,0 -0.002,0.047 -0.553,0.205c0,0 -0.645,0.177 -0.645,0.177c-1.297,0.259 -0.721,0.144 -1.435,0.184c0,0 -0.237,0.011 -0.237,0.011l-8.553,0c-1.935,-0.097 -0.473,0.196 -2.165,-0.368c0,0 -0.535,-0.198 -0.535,-0.198c-0.612,-0.272 -0.257,-0.08 -0.702,-0.341c0,0 -1.211,-0.83 -1.211,-0.83c-0.845,-0.74 -0.515,-0.399 -1.128,-1.154l-0.498,-0.691c-0.471,-0.8 -0.708,-1.45 -0.708,-1.45c-0.327,-1.034 -0.272,-0.952 -0.305,-1.157c0,0 -0.103,-0.806 -0.103,-0.806c-0.031,-0.619 -0.053,0.166 -0.002,-1.208c0,0 0.049,-0.701 0.049,-0.701c0.067,-0.608 -0.049,0.064 0.117,-0.899c0,0 0.204,-1.07 0.204,-1.07c0.241,-0.998 0.258,-0.994 0.258,-0.994c0.465,-1.551 0.396,-1.218 0.452,-1.371c0,0 0.49,-1.225 0.49,-1.225c0.249,-0.553 0.314,-0.696 0.314,-0.696c0,0 0.134,-0.292 0.596,-1.188c0,0 0.342,-0.646 0.698,-1.251c0.66,-1.148 0.689,-1.131 0.689,-1.131c0.42,-0.658 0.994,-1.492 0.994,-1.492c0.786,-1.1 0.798,-1.091 0.798,-1.091c0,0 1.299,-1.579 1.299,-1.579c0,0 1.177,-1.26 1.177,-1.26c0.371,-0.372 0.746,-0.739 1.131,-1.095c0.834,-0.773 -0.503,0.294 1.905,-1.639c0.643,-0.516 1.345,-1.031 1.345,-1.031c0.457,-0.334 0.593,-0.429 0.593,-0.429c0,0 1.691,-1.146 1.691,-1.146c0.34,-0.212 0.619,-0.401 1.758,-1.08l1.296,-0.739c0.623,-0.337 1.638,-0.869 1.638,-0.869c0,0 1.088,-0.54 1.088,-0.54c0.41,-0.193 0.511,-0.247 1.308,-0.595c0,0 0.732,-0.317 1.503,-0.62c0.685,-0.269 0.725,-0.279 1.034,-0.387c0,0 0.696,-0.246 0.696,-0.246c1.243,-0.407 1.3,-0.427 1.933,-0.613c0.832,-0.245 1.993,-0.538 1.993,-0.538c0.725,-0.176 0.719,-0.172 0.924,-0.218c0,0 0.759,-0.169 0.759,-0.169c0.497,-0.101 1.13,-0.227 1.13,-0.227c1.089,-0.201 1.259,-0.227 1.749,-0.302c0,0 1.977,-0.278 1.977,-0.278c0.958,-0.112 1.165,-0.131 1.618,-0.177c0,0 1.242,-0.11 1.242,-0.11c1.708,-0.12 2.295,-0.14 2.295,-0.14c1.203,-0.05 1.937,-0.062 1.937,-0.062c0.571,-0.008 1.297,-0.015 1.297,-0.015c1.058,0 2.117,0.014 3.177,0.044c1.234,0.034 1.505,0.055 2.155,0.09c0.984,0.052 2.262,0.154 2.449,0.17c1.347,0.115 1.146,0.105 2.173,0.213c0,0 1.67,0.207 1.67,0.207c0.551,0.08 1.295,0.192 1.295,0.192c0.601,0.1 1.424,0.242 1.424,0.242c0.703,0.132 1.424,0.277 1.424,0.277c0.493,0.107 0.514,0.111 0.723,0.155c0,0 2.556,0.631 2.556,0.631c0.373,0.099 0.507,0.118 1.558,0.453c0,0 0.633,0.197 1.257,0.41c1.1,0.375 1.227,0.438 1.75,0.64l0.407,0.161c0.511,0.214 0.545,0.224 0.775,0.322c0.642,0.272 1.524,0.691 1.524,0.691c0.329,0.16 0.214,0.053 1.728,0.888c0.58,0.321 1.377,0.794 1.377,0.794c0.432,0.268 1.017,0.648 1.017,0.648c0.237,0.157 -0.326,-0.547 2.645,1.96c0,0 1.364,1.197 1.364,1.197c0.223,0.208 0.308,0.291 0.308,0.291c0.484,0.483 0.81,0.812 0.81,0.812c0.315,0.338 0.629,0.678 0.939,1.022l0.33,0.372c0.926,1.083 1.217,1.456 1.707,2.102c0.385,0.508 0.853,1.169 0.853,1.169c0.312,0.447 0.43,0.624 0.43,0.624c0,0 0.583,0.852 1.171,1.845c0,0 1.166,2.104 1.166,2.104l0.226,0.444l0.211,0.432l0.308,0.653c0.704,1.556 1.326,3.15 1.836,4.786l0.074,0.239l0.207,0.701l0.133,0.476l0.13,0.487c0.082,0.33 0.117,0.425 0.291,1.199c0,0 0.266,1.153 0.447,2.212c0,0 0.167,1.008 0.167,1.008l0.106,0.746c0.128,0.972 0.256,2.302 0.256,2.302c0.047,0.589 0.095,1.292 0.095,1.292c0.032,0.57 0.042,0.794 0.042,0.794l0.021,0.53c0.016,0.704 0.03,1.591 0.03,1.591l0,68.156c-0.033,0.76 -0.009,0.505 -0.093,1.092c0,0 -0.094,0.527 -0.094,0.527c-0.349,1.397 -0.377,1.235 -0.463,1.429l-0.248,0.517c-0.02,0.036 -0.04,0.071 -0.06,0.107Zm-57.991,-13.054c0.53,0.016 18.827,2.338 28.341,-7.891c8.654,-9.303 8.627,-31.246 8.627,-31.246c0,0 -14.196,3.079 -30.977,3.532c-4.898,0.132 -12.137,0.571 -20.842,10.556c-1.643,1.884 -6.822,13.085 0.877,19.191c10.057,7.974 7.267,5.652 13.974,5.858Zm37.315,-42.935c1.233,0.202 2.303,1.082 2.594,2.245c0.079,0.316 0.069,0.4 0.089,0.723l0,5.848c-0.003,0.259 0.005,0.296 -0.011,1.092c0,0 -0.096,2.91 -0.213,4.285c-0.051,0.592 -0.128,1.295 -0.128,1.295c-0.068,0.583 -0.156,1.275 -0.156,1.275c-0.107,0.751 -0.265,1.733 -0.265,1.733c-0.043,0.234 -0.041,0.268 -0.18,0.976c0,0 -0.249,1.204 -0.249,1.204c-0.355,1.541 -0.776,3.073 -1.291,4.555c0,0 -0.315,0.87 -0.315,0.87c-0.116,0.299 -0.143,0.397 -0.426,1.072c0,0 -0.541,1.234 -0.541,1.234c-0.631,1.343 -0.951,1.955 -1.682,3.16c0,0 -0.812,1.271 -0.812,1.271c-0.608,0.881 -0.255,0.429 -0.982,1.363c-0.519,0.693 -1.077,1.358 -1.664,1.994c0,0 -0.104,0.134 -0.617,0.659c-1.659,1.699 -2.104,2.008 -2.869,2.629c0,0 -0.506,0.407 -0.506,0.407c-0.439,0.333 -0.986,0.741 -0.986,0.741c-0.765,0.543 -1.982,1.351 -3.15,1.995l-0.565,0.309c-0.561,0.285 -1.292,0.642 -1.292,0.642c-1.024,0.471 -2.495,1.041 -2.495,1.041c-0.33,0.121 -0.996,0.35 -0.996,0.35c-1.175,0.38 -1.423,0.436 -1.423,0.436c-1.027,0.281 -2.064,0.527 -3.104,0.723c0,0 -0.656,0.116 -0.656,0.116c-0.816,0.128 -0.816,0.125 -1.057,0.159c0,0 -1.764,0.203 -1.764,0.203c-0.858,0.071 -0.858,0.07 -1.116,0.085c-1.013,0.062 -2.028,0.101 -3.042,0.082c0,0 -1.092,-0.021 -1.092,-0.021c-1.854,-0.071 -1.191,-0.055 -1.888,-0.109c0,0 -1.086,-0.104 -1.086,-0.104c-0.696,-0.084 -1.377,-0.18 -1.379,-0.18c-0.319,-0.048 -0.884,-0.145 -0.884,-0.145c-1.597,-0.294 -1.473,-0.292 -1.909,-0.394c0,0 -0.562,-0.138 -0.562,-0.138c-0.398,-0.104 -0.446,-0.119 -0.446,-0.119c-0.987,-0.273 -1.423,-0.421 -1.423,-0.421c-1.26,-0.42 -1.164,-0.394 -1.787,-0.64c0,0 -0.677,-0.275 -0.677,-0.275c-0.286,-0.122 -0.398,-0.171 -0.398,-0.171c-1.858,-0.84 -1.84,-0.883 -1.84,-0.883c-0.539,-0.29 -1.264,-0.702 -1.264,-0.702c-0.362,-0.217 -0.841,-0.513 -0.841,-0.513c-0.809,-0.518 -1.012,-0.675 -1.012,-0.675c-1.246,-0.909 -0.787,-0.584 -0.931,-0.698c-0.122,-0.096 -0.243,-0.195 -0.363,-0.295c-0.51,-0.428 -1.174,-1.063 -1.174,-1.063c-0.304,-0.304 -0.686,-0.712 -0.686,-0.712c-0.297,-0.329 -0.656,-0.76 -0.656,-0.76c-1.143,-1.452 -0.671,-0.869 -0.996,-1.364c0,0 -0.802,-1.346 -0.802,-1.346c-0.341,-0.663 -0.355,-0.658 -0.611,-1.282c0,0 -0.316,-0.788 -0.316,-0.788c-0.161,-0.45 -0.358,-1.067 -0.358,-1.067c-0.14,-0.478 -0.098,-0.314 -0.194,-0.706c0,0 -0.162,-0.676 -0.162,-0.676c-0.11,-0.525 -0.066,-0.27 -0.143,-0.741l-0.151,-1.006c-0.049,-0.447 -0.101,-1.023 -0.101,-1.023c-0.067,-1.04 -0.041,-0.69 -0.046,-0.909c0,0 -0.013,-0.593 -0.013,-0.593c0,-0.847 0.028,-1.164 0.028,-1.164c0.172,-2.288 0.217,-1.889 0.276,-2.178c0,0 0.367,-1.497 0.367,-1.497c0.253,-0.78 0.259,-0.779 0.259,-0.779c0,0 0.403,-1.019 0.403,-1.019c0.406,-0.861 0.27,-0.579 0.362,-0.758c0,0 0.672,-1.205 0.672,-1.205c0.299,-0.476 0.305,-0.473 0.305,-0.473l0.653,-0.923c0.804,-1.019 0.397,-0.531 0.815,-0.992c0,0 0.889,-0.952 0.889,-0.952c0.799,-0.774 2.009,-1.779 2.009,-1.779c0.188,-0.144 0.35,-0.271 0.35,-0.271c0.335,-0.249 0.764,-0.558 0.764,-0.558c0.509,-0.348 0.541,-0.372 0.776,-0.527c0.572,-0.376 1.38,-0.854 1.38,-0.854c1.291,-0.73 0.917,-0.516 1.149,-0.639c0,0 0.405,-0.212 0.751,-0.388c0.573,-0.286 -0.232,0.07 1.559,-0.741c0,0 0.49,-0.217 0.49,-0.217c0.452,-0.189 1.006,-0.421 1.006,-0.421c0.643,-0.252 1.532,-0.588 1.532,-0.588c0.675,-0.245 1.603,-0.559 1.603,-0.559c0.56,-0.181 1.299,-0.413 1.299,-0.413c0.517,-0.153 1.156,-0.339 1.156,-0.339c0.908,-0.248 2.166,-0.579 2.166,-0.579c0.698,-0.169 1.641,-0.391 1.641,-0.391c0.725,-0.161 1.702,-0.368 1.702,-0.368c0.745,-0.149 1.751,-0.342 1.751,-0.342c0.604,-0.111 1.357,-0.242 1.357,-0.242c0.323,-0.054 0.531,-0.103 1.85,-0.299c0,0 0.934,-0.14 1.644,-0.242l24.368,-3.54c0,0 0.334,-0.031 0.729,-0.016Zm-24.241,9.461c-0.831,0.12 -1.66,0.244 -2.49,0.374c-0.738,0.116 -0.193,0.029 -1.5,0.256c-1.369,0.238 -3.172,0.626 -3.447,0.688c-1.131,0.251 -2.255,0.512 -3.359,0.83c-0.396,0.107 -0.549,0.152 -0.549,0.152c-0.373,0.109 -0.458,0.121 -1.197,0.356c0,0 -1.329,0.427 -1.329,0.427c-0.767,0.265 -1.739,0.623 -1.997,0.726c-0.816,0.326 -0.853,0.345 -1.19,0.488c0,0 -1.482,0.676 -1.482,0.676c-0.379,0.189 -0.89,0.448 -0.89,0.448c-0.869,0.471 -1.079,0.598 -1.079,0.598c-0.866,0.52 -1.707,1.075 -2.512,1.689c0,0 -1.331,1.148 -1.331,1.148c-0.194,0.188 -0.338,0.315 -0.923,0.972c-0.149,0.168 -0.851,1.113 -0.851,1.113c-0.41,0.633 -0.895,1.61 -0.895,1.61c-0.186,0.46 -0.417,1.133 -0.417,1.133c-0.097,0.341 -0.205,0.819 -0.205,0.819c-0.08,0.444 -0.128,-0.36 -0.201,1.648c-0.026,0.73 -0.058,0.502 0.033,1.685c0.051,0.664 0.2,1.583 0.2,1.583c0.081,0.434 -0.624,-0.835 0.695,2.379c0,0 -0.035,0.021 0.423,0.912c0,0 1.191,1.811 1.191,1.811c0.186,0.22 0.373,0.439 0.569,0.649c0.783,0.837 1.697,1.547 2.629,2.16c0,0 1.359,0.868 2.601,1.459c0,0 0.966,0.438 0.966,0.438c1.745,0.748 1.259,0.59 3.211,1.112c0.93,0.248 2.414,0.576 3.646,0.727c0,0 1.03,0.121 1.03,0.121c0.871,0.069 1.37,0.116 2.247,0.141c0.138,0.004 0.276,0.008 0.415,0.011c0.954,0.018 1.053,0.009 1.481,0c1.398,-0.028 2.794,-0.141 4.167,-0.334c0,0 2.279,-0.381 3.84,-0.807c0,0 1.146,-0.351 1.146,-0.351c0.86,-0.296 1.708,-0.624 2.538,-0.992c0,0 0.91,-0.435 0.91,-0.435c0.322,-0.161 0.447,-0.229 0.447,-0.229l1.323,-0.749c0.708,-0.435 1.665,-1.103 1.665,-1.103c1.195,-0.885 1.134,-0.867 1.362,-1.053c0.492,-0.403 0.963,-0.83 1.427,-1.266c0.266,-0.25 0.374,-0.363 0.374,-0.363c0.271,-0.271 0.387,-0.379 0.844,-0.872c0.812,-0.875 1.731,-2.118 1.731,-2.118c0.129,-0.173 -0.076,0.123 0.386,-0.548c0,0 0.406,-0.613 0.406,-0.613c0.261,-0.413 0.58,-0.953 0.58,-0.953c0.827,-1.466 1.019,-1.95 1.019,-1.95l0.383,-0.849c0.501,-1.176 0.56,-1.402 0.691,-1.762c0.441,-1.268 0.821,-2.562 1.12,-3.874c0,0 0.221,-1.031 0.221,-1.031c0.068,-0.362 0.196,-1.056 0.196,-1.056c0.302,-1.906 0.3,-2.035 0.372,-2.655c0.114,-1.101 0.195,-2.204 0.255,-3.308c0,0 0.028,-0.677 0.043,-1.226c0.009,-0.348 0.016,-0.113 0.016,-1.252l0.003,-0.267l0,-2.368c-6.986,1.015 -13.972,2.03 -20.958,3.045Z" style="fill:#fff;fill-rule:nonzero;"/></svg>