<?xml version="1.0" encoding="UTF-8" standalone="no"?><!DOCTYPE svg PUBLIC "-//W3C//DTD SVG 1.1//EN" "http://www.w3.org/Graphics/SVG/1.1/DTD/svg11.dtd"><svg width="100%" height="100%" viewBox="0 0 1189 928" version="1.1" xmlns="http://www.w3.org/2000/svg" xmlns:xlink="http://www.w3.org/1999/xlink" xml:space="preserve" xmlns:serif="http://www.serif.com/" style="fill-rule:evenodd;clip-rule:evenodd;stroke-linejoin:round;stroke-miterlimit:1.41421;"><rect x="12.66" y="0" width="370.915" height="370.915" style="fill:#fff;"/><path d="M396.236,729.166c0,-109.344 -88.774,-198.118 -198.118,-198.118c-109.344,0 -198.118,88.774 -198.118,198.118c0,109.344 88.774,198.118 198.118,198.118c109.344,0 198.118,-88.774 198.118,-198.118Z" style="fill:#fff;"/><path d="M1188.71,729.166c0,-109.344 -88.773,-198.118 -198.118,-198.118c-109.344,0 -198.117,88.774 -198.117,198.118c0,109.344 88.773,198.118 198.117,198.118c109.345,0 198.118,-88.774 198.118,-198.118Z" style="fill:#fff;"/><rect x="805.132" y="0" width="370.915" height="370.915" style="fill:#fff;"/><path d="M678.397,185.459l-117.809,117.808l-37.005,-32.024l85.988,-85.784l-85.988,-85.788l37.006,-32.024c39.269,39.271 78.538,78.541 117.808,117.812Z" style="fill:#fff;fill-rule:nonzero;"/><path d="M678.397,729.168l-117.809,117.808l-37.005,-32.024l85.988,-85.785l-85.988,-85.787l37.006,-32.024c39.269,39.27 78.538,78.541 117.808,117.812Z" style="fill:#fff;fill-rule:nonzero;"/></svg>