<?xml version="1.0" encoding="UTF-8" standalone="no"?><!DOCTYPE svg PUBLIC "-//W3C//DTD SVG 1.1//EN" "http://www.w3.org/Graphics/SVG/1.1/DTD/svg11.dtd"><svg width="100%" height="100%" viewBox="0 0 822 940" version="1.1" xmlns="http://www.w3.org/2000/svg" xmlns:xlink="http://www.w3.org/1999/xlink" xml:space="preserve" xmlns:serif="http://www.serif.com/" style="fill-rule:evenodd;clip-rule:evenodd;stroke-linejoin:round;stroke-miterlimit:1.41421;"><path d="M220.151,939.944l0,-207.92l-220.151,-220.151l0,-147.815l95.399,0l0,-170.181l124.752,-193.877l381.595,0l124.752,193.877l0,170.181l95.399,0l0,147.815l-220.151,220.151l0,207.92c0,0 -47.699,-44.03 -47.699,-44.03l-47.7,44.03c0,0 -47.699,-44.03 -47.699,-44.03l-47.7,44.03l-47.699,-44.03l-47.699,44.03c0,0 -47.7,-44.03 -47.7,-44.03l-47.699,44.03Zm24.686,-469.88c36.276,36.276 44.801,86.654 19.026,112.429c-25.775,25.775 -76.152,17.249 -112.428,-19.027c-36.276,-36.276 -44.802,-86.653 -19.027,-112.428c25.775,-25.775 76.153,-17.25 112.429,19.026Zm332.223,0c-36.276,36.276 -44.801,86.654 -19.026,112.429c25.775,25.775 76.152,17.249 112.428,-19.027c36.276,-36.276 44.802,-86.653 19.027,-112.428c-25.776,-25.775 -76.153,-17.25 -112.429,19.026Z" style="fill:#fff;"/></svg>