<?xml version="1.0" encoding="UTF-8" standalone="no"?><!DOCTYPE svg PUBLIC "-//W3C//DTD SVG 1.1//EN" "http://www.w3.org/Graphics/SVG/1.1/DTD/svg11.dtd"><svg width="100%" height="100%" viewBox="0 0 5595 3555" version="1.1" xmlns="http://www.w3.org/2000/svg" xmlns:xlink="http://www.w3.org/1999/xlink" xml:space="preserve" xmlns:serif="http://www.serif.com/" style="fill-rule:evenodd;clip-rule:evenodd;stroke-linejoin:round;stroke-miterlimit:1.41421;"><g><path d="M813.526,81.353c0,-44.9 -36.453,-81.353 -81.352,-81.353l-650.821,0c-44.9,0 -81.353,36.453 -81.353,81.353l0,650.821c0,44.899 36.453,81.352 81.353,81.352l650.821,0c44.899,0 81.352,-36.453 81.352,-81.352l0,-650.821Z" style="fill:#fff;"/><path d="M1805.46,81.353c0,-44.9 -36.453,-81.353 -81.353,-81.353l-650.82,0c-44.9,0 -81.353,36.453 -81.353,81.353l0,650.821c0,44.899 36.453,81.352 81.353,81.352l650.82,0c44.9,0 81.353,-36.453 81.353,-81.352l0,-650.821Z" style="fill:#fff;"/><path d="M2797.39,81.353c0,-44.9 -36.453,-81.353 -81.353,-81.353l-650.82,0c-44.9,0 -81.353,36.453 -81.353,81.353l0,650.821c0,44.899 36.453,81.352 81.353,81.352l650.82,0c44.9,0 81.353,-36.453 81.353,-81.352l0,-650.821Z" style="fill:#fff;"/><path d="M1309.49,1044.88c0,-44.9 -36.453,-81.353 -81.353,-81.353l-650.821,0c-44.9,0 -81.353,36.453 -81.353,81.353l0,650.821c0,44.899 36.453,81.352 81.353,81.352l650.821,0c44.9,0 81.353,-36.453 81.353,-81.352l0,-650.821Z" style="fill:#fff;"/><path d="M2301.42,1044.88c0,-44.9 -36.453,-81.353 -81.353,-81.353l-650.821,0c-44.9,0 -81.353,36.453 -81.353,81.353l0,650.821c0,44.899 36.453,81.352 81.353,81.352l650.821,0c44.9,0 81.353,-36.453 81.353,-81.352l0,-650.821Z" style="fill:#fff;"/></g><g><path d="M4781.25,3472.75c0,44.9 36.453,81.352 81.353,81.352l650.821,0c44.899,0 81.352,-36.452 81.352,-81.352l0,-650.821c0,-44.9 -36.453,-81.353 -81.352,-81.353l-650.821,0c-44.9,0 -81.353,36.453 -81.353,81.353l0,650.821Z" style="fill:#fff;"/><path d="M3789.32,3472.75c0,44.9 36.453,81.352 81.353,81.352l650.821,0c44.899,0 81.352,-36.452 81.352,-81.352l0,-650.821c0,-44.9 -36.453,-81.353 -81.352,-81.353l-650.821,0c-44.9,0 -81.353,36.453 -81.353,81.353l0,650.821Z" style="fill:#fff;"/><path d="M2797.39,3472.75c0,44.9 36.453,81.352 81.353,81.352l650.821,0c44.899,0 81.352,-36.452 81.352,-81.352l0,-650.821c0,-44.9 -36.453,-81.353 -81.352,-81.353l-650.821,0c-44.9,0 -81.353,36.453 -81.353,81.353l0,650.821Z" style="fill:#fff;"/><path d="M4285.28,2509.23c0,44.899 36.452,81.352 81.352,81.352l650.821,0c44.9,0 81.353,-36.453 81.353,-81.352l0,-650.821c0,-44.9 -36.453,-81.353 -81.353,-81.353l-650.821,0c-44.9,0 -81.352,36.453 -81.352,81.353l0,650.821Z" style="fill:#fff;"/><path d="M3293.35,2509.23c0,44.899 36.452,81.352 81.352,81.352l650.821,0c44.9,0 81.353,-36.453 81.353,-81.352l0,-650.821c0,-44.9 -36.453,-81.353 -81.353,-81.353l-650.821,0c-44.9,0 -81.352,36.453 -81.352,81.353l0,650.821Z" style="fill:#fff;"/></g><path d="M4259.16,441.434l-126.152,-126.151l-2797.39,2797.39l126.152,126.151l2797.39,-2797.39Z" style="fill:#fff;"/></svg>