<?xml version="1.0" encoding="UTF-8" standalone="no"?><!DOCTYPE svg PUBLIC "-//W3C//DTD SVG 1.1//EN" "http://www.w3.org/Graphics/SVG/1.1/DTD/svg11.dtd"><svg width="100%" height="100%" viewBox="0 0 2166 1241" version="1.1" xmlns="http://www.w3.org/2000/svg" xmlns:xlink="http://www.w3.org/1999/xlink" xml:space="preserve" xmlns:serif="http://www.serif.com/" style="fill-rule:evenodd;clip-rule:evenodd;stroke-linejoin:round;stroke-miterlimit:1.41421;"><path d="M2165.95,83.366c0,0 -315.574,-83.366 -473.361,-83.366c-157.787,0 -473.362,83.366 -473.362,83.366l0,1157.22c0,0 315.575,-83.366 473.362,-83.366c157.787,0 473.361,83.366 473.361,83.366l0,-1157.22Z" style="fill:#fff;"/><path d="M946.723,83.366c0,0 -315.574,-83.366 -473.361,-83.366c-157.788,0 -473.362,83.366 -473.362,83.366l0,1157.22c0,0 315.574,-83.366 473.362,-83.366c157.787,0 473.361,83.366 473.361,83.366l0,-1157.22Z" style="fill:#fff;"/><rect x="1025.92" y="90.66" width="114.107" height="1149.93" style="fill:#fff;"/></svg>