<?xml version="1.0" encoding="UTF-8" standalone="no"?><!DOCTYPE svg PUBLIC "-//W3C//DTD SVG 1.1//EN" "http://www.w3.org/Graphics/SVG/1.1/DTD/svg11.dtd"><svg width="100%" height="100%" viewBox="0 0 1182 1182" version="1.1" xmlns="http://www.w3.org/2000/svg" xmlns:xlink="http://www.w3.org/1999/xlink" xml:space="preserve" xmlns:serif="http://www.serif.com/" style="fill-rule:evenodd;clip-rule:evenodd;stroke-linejoin:round;stroke-miterlimit:1.41421;"><path d="M886.5,0c163.091,0 295.5,132.409 295.5,295.5l0,591c0,163.091 -132.409,295.5 -295.5,295.5l-591,0c-163.091,0 -295.5,-132.409 -295.5,-295.5l0,-591c0,-163.091 132.409,-295.5 295.5,-295.5l591,0Zm-295.5,232.797c197.698,0 358.203,160.505 358.203,358.203c0,197.698 -160.505,358.203 -358.203,358.203c-197.698,0 -358.203,-160.505 -358.203,-358.203c0,-197.698 160.505,-358.203 358.203,-358.203Z" style="fill:#fff;"/><path d="M773.864,573.119c6.773,3.387 11.051,10.309 11.051,17.881c0,7.572 -4.278,14.494 -11.051,17.881c-71.592,35.796 -231.262,115.631 -296.808,148.403c-6.197,3.099 -13.556,2.768 -19.45,-0.875c-5.894,-3.642 -9.481,-10.077 -9.481,-17.005c0,-68.636 0,-228.172 0,-296.808c0,-6.928 3.587,-13.363 9.481,-17.005c5.894,-3.643 13.253,-3.974 19.45,-0.875c65.546,32.772 225.216,112.607 296.808,148.403Z" style="fill:#f7fbff;"/></svg>