<?xml version="1.0" encoding="UTF-8" standalone="no"?><!DOCTYPE svg PUBLIC "-//W3C//DTD SVG 1.1//EN" "http://www.w3.org/Graphics/SVG/1.1/DTD/svg11.dtd"><svg width="100%" height="100%" viewBox="0 0 1553 535" version="1.1" xmlns="http://www.w3.org/2000/svg" xmlns:xlink="http://www.w3.org/1999/xlink" xml:space="preserve" xmlns:serif="http://www.serif.com/" style="fill-rule:evenodd;clip-rule:evenodd;stroke-linejoin:round;stroke-miterlimit:1.41421;"><path d="M994.554,158.229c0,-60.24 -48.907,-109.146 -109.146,-109.146l-218.292,0c-60.24,0 -109.147,48.906 -109.147,109.146l0,218.292c0,60.24 48.907,109.146 109.147,109.146l218.292,0c60.239,0 109.146,-48.906 109.146,-109.146l0,-218.292Z" style="fill:#fff;"/><path d="M1042.93,190.973l136.823,0c11.295,0 20.452,-9.157 20.452,-20.452c0,-18.777 0,-47.35 0,-72.063c0,-8.272 4.983,-15.73 12.625,-18.895c7.642,-3.166 16.439,-1.416 22.288,4.433c48.689,48.689 134.835,134.835 168.917,168.917c3.836,3.836 5.991,9.038 5.991,14.462c0,5.424 -2.155,10.626 -5.991,14.462c-34.082,34.082 -120.228,120.228 -168.917,168.917c-5.849,5.849 -14.646,7.599 -22.288,4.433c-7.642,-3.165 -12.625,-10.623 -12.625,-18.895c0,-24.713 0,-53.286 0,-72.063c0,-11.295 -9.157,-20.451 -20.452,-20.452l-136.823,0l0,-152.804Zm-670.155,152.804c-11.296,0.001 -20.452,9.157 -20.452,20.452c0,18.777 0,47.35 0,72.063c0,8.272 -4.983,15.73 -12.625,18.895c-7.643,3.166 -16.439,1.416 -22.289,-4.433c-48.688,-48.689 -134.834,-134.835 -168.917,-168.917c-3.835,-3.836 -5.99,-9.038 -5.99,-14.462c0,-5.424 2.155,-10.626 5.99,-14.462c34.083,-34.082 120.229,-120.228 168.917,-168.917c5.85,-5.849 14.646,-7.599 22.289,-4.433c7.642,3.165 12.625,10.623 12.625,18.895c0,24.713 0,53.286 0,72.063c0,11.295 9.156,20.451 20.452,20.452l136.823,0l0,152.804l-136.823,0Zm-93.48,-87.705l0,-45.214c0,-1.634 -0.446,-2.896 -1.337,-3.787c-0.891,-0.891 -2.153,-1.336 -3.786,-1.336l-7.128,0c-1.485,0 -2.71,0.445 -3.675,1.336c-0.965,0.891 -1.448,2.153 -1.448,3.787l0,45.214l-46.105,0c-1.485,0 -2.71,0.483 -3.675,1.448c-0.965,0.965 -1.448,2.19 -1.448,3.675l0,6.682c0,1.485 0.483,2.71 1.448,3.675c0.965,0.965 2.19,1.448 3.675,1.448l46.105,0l0,46.551c0,1.484 0.483,2.709 1.448,3.675c0.965,0.965 2.19,1.447 3.675,1.447l7.128,0c1.485,0 2.71,-0.482 3.675,-1.447c0.965,-0.966 1.448,-2.191 1.448,-3.675l0,-46.551l46.105,0c1.485,0 2.71,-0.483 3.675,-1.448c0.965,-0.965 1.448,-2.19 1.448,-3.675l0,-6.682c0,-1.485 -0.483,-2.71 -1.448,-3.675c-0.965,-0.965 -2.19,-1.448 -3.675,-1.448l-46.105,0Zm1044.3,0.111l-66.82,0c-1.485,0.001 -2.71,0.483 -3.675,1.448c-0.965,0.965 -1.448,2.19 -1.448,3.675l0,8.019c0,1.484 0.483,2.672 1.448,3.563c0.965,0.891 2.19,1.337 3.675,1.337l66.82,0c1.485,0 2.71,-0.446 3.675,-1.337c0.965,-0.891 1.447,-2.079 1.447,-3.563l0,-8.019c0,-1.485 -0.482,-2.71 -1.447,-3.675c-0.965,-0.965 -2.19,-1.447 -3.675,-1.448Z" style="fill:#fff;"/></svg>