<?xml version="1.0" encoding="UTF-8" standalone="no"?><!DOCTYPE svg PUBLIC "-//W3C//DTD SVG 1.1//EN" "http://www.w3.org/Graphics/SVG/1.1/DTD/svg11.dtd"><svg width="100%" height="100%" viewBox="0 0 960 928" version="1.1" xmlns="http://www.w3.org/2000/svg" xmlns:xlink="http://www.w3.org/1999/xlink" xml:space="preserve" xmlns:serif="http://www.serif.com/" style="fill-rule:evenodd;clip-rule:evenodd;stroke-linejoin:round;stroke-miterlimit:1.41421;"><path d="M319.914,119.533c0,-65.972 53.561,-119.533 119.533,-119.533l400.762,0c65.972,0 119.533,53.561 119.533,119.533l0,239.066c0,65.972 -53.561,119.533 -119.533,119.533l-44.396,0l35.963,145.884l-204.37,-145.884l-187.959,0c-65.972,0 -119.533,-53.561 -119.533,-119.533l0,-239.066Z" style="fill:#fff;"/><path d="M266.788,303.267l0,56.12c0,0 -0.005,0.053 0.018,1.565c0.008,0.52 0.016,1.04 0.024,1.56c0,0 0.042,1.382 0.084,2.741c0,0 0.084,1.954 0.084,1.954c0,0 0.026,0.528 0.21,3.51c0,0 0.507,5.84 0.507,5.84c0,0 0.303,2.719 0.303,2.719l0.299,2.333c0,0 0.052,0.409 0.32,2.301c0,0 0.244,1.581 0.244,1.581c0.059,0.372 0.117,0.743 0.176,1.115c0,0 0.681,3.855 0.681,3.855c0,0 0.289,1.538 0.289,1.538c0,0 0.412,2.005 0.722,3.481c0,0 0.69,3.012 0.69,3.012c0,0 0.451,1.872 0.451,1.872c0,0 0.128,0.518 0.897,3.448l0.411,1.51l0.437,1.514c0,0 0.974,3.205 1.729,5.59c0,0 0.441,1.305 0.887,2.622c0,0 0.513,1.455 0.902,2.548c0,0 0.069,0.198 0.547,1.47c0.184,0.49 0.369,0.979 0.553,1.469c0,0 0.076,0.205 0.573,1.459c0.193,0.485 0.385,0.969 0.58,1.453c0.413,1.024 -0.017,-0.025 1.063,2.564c0,0 0.625,1.438 0.625,1.438c0,0 0.656,1.488 0.656,1.488c0.898,2.031 1.858,4.032 2.829,6.028c0,0 0.747,1.488 0.747,1.488c0.167,0.328 0.332,0.657 0.501,0.984c0.751,1.459 0.17,0.354 1.109,2.12c0.984,1.848 2.679,4.843 2.679,4.843c0.366,0.631 0.655,1.136 1.017,1.755l1.233,2.055l0.571,0.927c1.283,2.104 2.772,4.346 2.772,4.346c0,0 1.4,2.093 1.4,2.093c1.015,1.507 2.259,3.241 2.259,3.241c0.491,0.682 0.724,1.011 1.191,1.653c0,0 2.676,3.554 2.676,3.554c0,0 1.248,1.608 1.248,1.608c0,0 0.543,0.672 0.543,0.672c0.82,1.025 1.649,2.037 2.484,3.043c0,0 0.333,0.391 0.788,0.929c0.51,0.605 1.028,1.202 1.543,1.801c0,0 1.693,1.905 1.693,1.905c0.502,0.557 0.779,0.858 1.718,1.889c0,0 1.196,1.275 2.219,2.348c0,0 0.569,0.588 1.075,1.105c0,0 0.954,0.966 1.689,1.709c0,0 1.206,1.182 1.206,1.182c1.245,1.216 2.019,1.954 4.083,3.857l0.771,0.699c0,0 1.752,1.562 3.069,2.707l0.795,0.68c0,0 1.259,1.056 2.335,1.95l1.312,1.063c0,0 1.788,1.416 3.133,2.466l0.924,0.702c0,0 1.298,0.966 2.35,1.75l0.864,0.628c0,0 0.76,0.539 1.725,1.225l1.028,0.717c0,0 1.242,0.847 1.242,0.847l0.746,0.505l0.747,0.498c0.715,0.477 1.14,0.757 2.356,1.54c0,0 0.793,0.507 2.333,1.47c0,0 2.207,1.338 2.207,1.338c2.246,1.335 5.264,3.023 5.264,3.023l2.266,1.228c0,0 1.476,0.774 1.476,0.774c1.987,1.03 0.776,0.4 2.785,1.423l0.824,0.403c0,0 1.999,0.962 1.999,0.962c3.056,1.446 6.14,2.8 9.28,4.072c0,0 1.978,0.791 3.438,1.345c0,0 3.29,1.209 3.29,1.209c2.44,0.869 5.127,1.733 5.127,1.733c1.175,0.378 1.885,0.603 3.898,1.2c1.502,0.445 3.683,1.042 3.683,1.042c2.754,0.745 5.526,1.403 8.323,2.035c0,0 2.4,0.502 4.206,0.861c0,0 0.809,0.152 1.697,0.316c0,0 1.755,0.308 3.097,0.532c0,0 1.574,0.25 1.574,0.25l1.149,0.172c0,0 1.474,0.209 2.731,0.376c0,0 2.102,0.259 2.102,0.259c2,0.235 4.007,0.43 6.015,0.603c0,0 3.328,0.238 3.328,0.238c3.422,0.211 6.88,0.317 10.342,0.344l171.538,0l29.436,21.012l0,109.597c0,65.972 -53.561,119.533 -119.533,119.533l-187.96,0l-204.369,145.885l35.962,-145.885l-44.395,0c-65.972,0 -119.533,-53.561 -119.533,-119.533l0,-239.066c0,-65.971 53.561,-119.532 119.533,-119.533l147.255,0Z" style="fill:#fff;"/></svg>