<?xml version="1.0" encoding="UTF-8" standalone="no"?><!DOCTYPE svg PUBLIC "-//W3C//DTD SVG 1.1//EN" "http://www.w3.org/Graphics/SVG/1.1/DTD/svg11.dtd"><svg width="100%" height="100%" viewBox="0 0 1513 2247" version="1.1" xmlns="http://www.w3.org/2000/svg" xmlns:xlink="http://www.w3.org/1999/xlink" xml:space="preserve" xmlns:serif="http://www.serif.com/" style="fill-rule:evenodd;clip-rule:evenodd;stroke-linejoin:round;stroke-miterlimit:1.41421;"><path d="M1404.15,2246.42l-1295.93,0c-59.725,0 -108.214,-48.489 -108.214,-108.213l0,-1890.85c0,-59.725 48.489,-108.214 108.214,-108.214l268.846,0l0,126.328l0.051,2.748c0.033,1.588 0.081,3.63 0.081,3.63l0.065,1.544l-77.946,0l-1.389,0.022l-1.245,0.02l-1.272,0.041l-1.238,0.04l-1.237,0.06c-0.472,0.023 -0.945,0.045 -1.417,0.068l-1.235,0.08c-1.23,0.079 -2.461,0.176 -3.692,0.275c0,0 -1.498,0.143 -2.626,0.252c0,0 -1.604,0.165 -1.604,0.165l-1.254,0.162c-2.276,0.265 -4.545,0.626 -6.813,0.967l-1.226,0.224c-1.001,0.167 -1.998,0.365 -2.996,0.554c0,0 -1.284,0.256 -2.615,0.532c0,0 -3.81,0.855 -3.81,0.855l-1.212,0.283l-0.654,0.17l-1.197,0.288l-1.197,0.331c-0.849,0.219 -1.691,0.463 -2.536,0.696l-1.175,0.345c-0.928,0.272 -0.928,0.27 -1.932,0.578c-1.57,0.482 -3.323,1.056 -3.323,1.056l-1.643,0.555c-1.489,0.506 -1.485,0.516 -2.967,1.045c-0.357,0.134 -0.717,0.259 -1.077,0.388l-2.073,0.806l0.576,-0.227l-0.935,0.351l-1.104,0.45l-1.128,0.443l-1.086,0.463c-0.685,0.281 -1.363,0.578 -2.044,0.868l-1.092,0.485c-1.116,0.496 -2.229,0.999 -3.336,1.519c-3.279,1.538 -2.579,1.246 -4.516,2.215l-1.041,0.54l-1.028,0.534l-1.021,0.55c-0.711,0.382 -1.422,0.765 -2.133,1.148c0,0 -1.156,0.629 -1.156,0.629l-0.979,0.587c0,0 -2.082,1.243 -2.082,1.243l-1.114,0.668l-1.252,0.777c-1.467,0.909 -1.462,0.917 -2.916,1.847l-0.908,0.606c-0.442,0.291 -0.881,0.585 -1.32,0.879l-0.914,0.627l-0.898,0.618l-0.891,0.631c-0.749,0.531 -1.499,1.062 -2.249,1.593l-0.852,0.649c-0.739,0.538 -1.458,1.104 -2.187,1.659l-0.839,0.657c-0.32,0.25 -0.639,0.5 -0.959,0.75l-0.817,0.657l-1.25,1.006c0,0 -1.26,1.055 -2.149,1.802l0.306,-0.264l-0.786,0.649l-2.339,2.073c-0.541,0.49 -1.091,0.97 -1.637,1.454c0,0 -2.785,2.646 -2.785,2.646c-2.172,2.069 -4.236,4.234 -6.308,6.409l-1.762,1.939l0.386,-0.438l-0.626,0.674l-1.695,1.962c-0.233,0.27 -0.466,0.539 -0.699,0.809l-0.581,0.688l-1.345,1.594c0,0 -0.67,0.8 -0.67,0.8l-1.611,2.058c-0.65,0.831 -1.3,1.661 -1.95,2.492l-0.5,0.691c0,0 -1.642,2.261 -1.642,2.261c0,0 -1.087,1.532 -1.849,2.609c0,0 -0.857,1.279 -1.663,2.487l-0.527,0.808c-0.55,0.842 -1.099,1.685 -1.649,2.528l-0.8,1.292l-1.05,1.784c-0.64,1.067 -1.261,2.147 -1.892,3.221c0,0 -1.174,2.166 -1.174,2.166l-1.039,1.893c0,0 -0.48,0.938 -0.48,0.938l-1.187,2.376l-0.448,0.912l-1.17,2.385c0,0 -1.226,2.742 -1.226,2.742c-0.489,1.101 -0.969,2.205 -1.451,3.31c0,0 -1.033,2.391 -1.033,2.391l-0.765,2.103l-0.452,1.189c0,0 -0.873,2.427 -0.873,2.427l-0.765,2.144l-0.335,0.996l-0.676,2.143c-0.283,0.895 -0.566,1.789 -0.848,2.684l-0.698,2.487l0.429,-1.555c0,0 -1.218,4.394 -1.218,4.394l-0.196,0.787c0,0 -1.076,4.436 -1.076,4.436l-0.168,0.768l-0.5,2.461c0,0 -0.351,1.748 -0.598,2.982l-0.377,2.264c-0.134,0.801 -0.463,2.772 -0.522,3.165c-0.399,2.688 -0.707,5.402 -0.707,5.402c-0.16,1.628 -0.319,3.254 -0.477,4.882c0,0 -0.183,2.71 -0.183,2.71c-0.057,0.884 -0.114,1.768 -0.171,2.653c0,0 -0.092,2.692 -0.092,2.692l-0.073,2.263l-0.006,0.367l0,61.971c0,0 0.079,2.629 0.079,2.629l0.072,2.296c0,0 0.168,2.686 0.168,2.686c0.057,0.881 0.114,1.762 0.17,2.644c0,0 0.26,2.738 0.26,2.738c0.122,1.247 0.294,2.931 0.294,2.931c0.321,2.446 0.642,4.895 1.042,7.334l0.523,3.139l0.492,2.46c0,0 0.774,3.751 0.774,3.751l1.029,4.263l0.155,0.621l0.877,3.178l0.698,2.487l1.524,4.827l0.335,0.997l1.574,4.406c0,0 0.516,1.353 0.516,1.353l0.765,2.104c0,0 1.033,2.39 1.033,2.39l1.06,2.43c0,0 0.819,1.842 1.471,3.308c0,0 1.316,2.699 1.316,2.699c0.539,1.098 1.088,2.193 1.635,3.288c0,0 0.48,0.938 0.48,0.938l1.039,1.893l1.004,1.864l0.808,1.388c0.741,1.321 1.535,2.612 2.304,3.919l0.8,1.293l1.131,1.731c0.739,1.154 1.501,2.289 2.261,3.421c1.236,1.842 2.537,3.612 3.832,5.402l0.606,0.829l3.561,4.55l0.564,0.669c0,0 1.451,1.725 1.451,1.725l0.581,0.688l2.394,2.771l0.626,0.674l-0.386,-0.438l1.762,1.939l0.636,0.667c0.693,0.745 1.402,1.476 2.104,2.212l0.681,0.682c0.641,0.657 1.296,1.299 1.945,1.948l0.696,0.662c1.189,1.161 1.837,1.756 2.779,2.653c0,0 1.766,1.573 1.766,1.573c0.813,0.736 1.641,1.457 2.462,2.185l0.786,0.649l-0.306,-0.264l1.886,1.586c0,0 1.367,1.104 2.33,1.879l0.824,0.645c1.325,1.037 2.67,2.048 4.013,3.07l3.14,2.224l0.898,0.618c1.682,1.156 3.393,2.273 5.113,3.373l2.197,1.363l3.043,1.826c0,0 1.132,0.672 1.132,0.672l1.01,0.544c0,0 2.127,1.151 2.127,1.151c0.391,0.211 0.782,0.422 1.173,0.632l1.028,0.534c1.471,0.764 1.469,0.766 3.276,1.658c1.396,0.689 2.81,1.342 4.221,1.996l1.079,0.479c1.092,0.485 2.189,0.96 3.289,1.427c0.415,0.176 0.833,0.353 1.25,0.53l1.128,0.443c1.015,0.414 1.013,0.416 2.039,0.801l-0.576,-0.227l2.073,0.806l0.913,0.327c0.758,0.284 1.524,0.547 2.286,0.819l0.845,0.287l1.169,0.403c0,0 1.265,0.42 1.265,0.42l1.179,0.366c0.833,0.268 1.672,0.519 2.51,0.773c0,0 3.235,0.923 5.683,1.599l1.197,0.288l0.654,0.17l1.212,0.283c1.198,0.289 1.199,0.281 2.401,0.55l0.633,0.137c0.985,0.214 0.985,0.212 1.972,0.416c0,0 3.256,0.625 5.641,1.062l1.565,0.235c1.879,0.303 3.727,0.536 6.502,0.894l1.604,0.165l2.095,0.203c0.266,0.022 0.265,0.023 0.531,0.049l2.278,0.184l2.649,0.171l2.654,0.128l2.51,0.081l1.245,0.02l1.389,0.022l913.703,0c0.879,-0.014 1.757,-0.021 2.633,-0.042c0.203,-0.005 2.377,-0.075 2.549,-0.081l1.237,-0.06c0.473,-0.022 0.945,-0.045 1.417,-0.068l1.235,-0.08c1.231,-0.079 2.461,-0.176 3.692,-0.275c0,0 1.499,-0.142 2.626,-0.252c0,0 1.604,-0.165 1.604,-0.165l1.254,-0.162l1.42,-0.182c1.796,-0.231 3.59,-0.515 5.388,-0.785l1.225,-0.224c0.872,-0.146 1.739,-0.316 2.609,-0.476l1.21,-0.242c0.708,-0.141 0.986,-0.195 1.799,-0.368c2.305,-0.488 4.586,-1.045 6.872,-1.596l1.197,-0.33c1.504,-0.39 2.994,-0.829 4.481,-1.269c1.902,-0.562 4.485,-1.407 4.485,-1.407l1.668,-0.554c0,0 2.942,-1.046 2.942,-1.046c1.169,-0.438 2.338,-0.879 3.509,-1.318l1.104,-0.45l1.128,-0.443l1.245,-0.53l1.109,-0.456l1.869,-0.83c1.115,-0.496 2.229,-0.999 3.335,-1.519c0.082,-0.038 2.058,-0.99 2.123,-1.021c0,0 1.307,-0.651 2.235,-1.114c0,0 1.302,-0.673 2.227,-1.154l1.021,-0.549l1.108,-0.597l2.181,-1.181l0.979,-0.587c0,0 2.083,-1.243 2.083,-1.243l1.113,-0.668l1.252,-0.777l1.988,-1.232l0.923,-0.615l0.936,-0.599c0,0 2.211,-1.513 2.211,-1.513l0.898,-0.618l0.891,-0.631c0.454,-0.322 0.909,-0.644 1.364,-0.966l0.859,-0.635l0.879,-0.641c0,0 1.281,-0.97 2.186,-1.659l0.839,-0.656c0.32,-0.251 0.639,-0.501 0.959,-0.751l0.817,-0.657l1.25,-1.005c0,0 1.261,-1.056 2.149,-1.803l0.783,-0.676l0.768,-0.663c0,0 1.714,-1.516 2.905,-2.572c0,0 2.785,-2.647 2.785,-2.647c2.172,-2.068 4.236,-4.234 6.308,-6.409l1.763,-1.939l-0.387,0.438l0.626,-0.674l1.695,-1.962c0.233,-0.27 0.466,-0.539 0.699,-0.809l0.581,-0.688l1.346,-1.594l0.669,-0.8l1.611,-2.058c0.948,-1.211 1.936,-2.512 1.936,-2.512c1.107,-1.444 1.089,-1.457 2.156,-2.932c0,0 1.087,-1.532 1.85,-2.609c0,0 0.857,-1.279 1.662,-2.487l0.528,-0.808c1.881,-2.881 3.643,-5.855 5.39,-8.825l1.005,-1.865c0.279,-0.508 0.552,-1.02 0.827,-1.531l1.011,-1.913l-0.156,0.312l0.318,-0.59l1.171,-2.387c0.441,-0.899 0.881,-1.797 1.322,-2.696c0,0 1.226,-2.742 1.226,-2.742l1.216,-2.736l0.23,-0.574l-0.097,0.222c1.099,-2.697 2.352,-5.905 2.352,-5.905c0,0 0.873,-2.427 0.873,-2.427l0.765,-2.143l0.335,-0.997l0.677,-2.143c0.448,-1.42 0.983,-3.132 0.983,-3.132l0.688,-2.493c0.748,-2.711 1.391,-5.376 1.391,-5.376c0.359,-1.487 0.797,-3.381 0.797,-3.381l0.451,-2.256l0.492,-2.42l0.064,-0.386c0,0 0.413,-2.439 0.413,-2.439c0.154,-0.926 0.308,-1.852 0.463,-2.777c0,0 0.372,-2.794 0.372,-2.794c0.158,-1.201 0.364,-2.821 0.364,-2.821c0.16,-1.627 0.319,-3.254 0.477,-4.882c0,0 0.183,-2.71 0.183,-2.71c0.106,-1.647 0.192,-3.295 0.245,-4.945c0.044,-1.376 0.098,-3.248 0.098,-3.248l0,-61.534l-0.006,-0.367c-0.055,-1.724 -0.11,-3.449 -0.166,-5.173l-0.318,-4.933c0,0 -0.036,-0.43 -0.036,-0.43c-0.158,-1.628 -0.317,-3.254 -0.477,-4.882l-0.041,-0.358l-0.643,-4.902l-0.052,-0.355l-0.84,-5.04c0,0 -0.1,-0.562 -0.1,-0.562l-0.492,-2.42l-0.451,-2.256c0,0 -0.126,-0.554 -0.126,-0.554l-0.63,-2.657c-0.227,-0.941 -0.454,-1.881 -0.681,-2.822l-1.439,-5.217c0,0 -0.188,-0.615 -0.188,-0.615l-1.472,-4.66l-0.335,-0.996l-1.573,-4.407c0,0 -0.26,-0.71 -0.26,-0.71l-0.827,-2.069c-0.164,-0.418 -0.333,-0.834 -0.499,-1.251l-0.831,-2.039l0.097,0.222l-0.23,-0.573l-2.295,-5.165l-0.147,-0.314l-2.493,-5.083l-0.318,-0.59l0.156,0.312c-1.446,-2.737 -2.919,-5.44 -4.477,-8.088c0,0 -1.243,-2.077 -2.108,-3.518l-1.13,-1.732c-0.739,-1.154 -1.501,-2.289 -2.262,-3.421c-1.236,-1.842 -2.537,-3.612 -3.832,-5.402l-0.62,-0.809l-0.506,-0.684l-3.041,-3.886c0,0 -0.669,-0.8 -0.669,-0.8l-1.927,-2.282l-2.394,-2.771l-0.626,-0.674l0.387,0.438l-1.763,-1.939l-0.635,-0.667c-0.693,-0.745 -1.403,-1.475 -2.104,-2.212l-0.682,-0.682c-0.641,-0.657 -1.296,-1.299 -1.945,-1.948l-0.696,-0.662c-0.122,-0.12 -0.122,-0.12 -0.246,-0.238c-1.153,-1.125 -2.785,-2.646 -2.785,-2.646l-2.647,-2.347c0,0 -0.589,-0.512 -1.026,-0.889c-1.324,-1.143 -1.33,-1.136 -2.668,-2.262c0,0 -1.368,-1.104 -2.331,-1.879l-1.798,-1.407l-1.911,-1.454c0,0 -0.663,-0.488 -1.154,-0.846l-0.859,-0.635l-2.255,-1.597l-2.822,-1.94c0,0 -1.223,-0.79 -1.223,-0.79l-0.923,-0.615l-3.24,-2.009l-3.043,-1.826c0,0 -1.132,-0.672 -1.132,-0.672l-1.898,-1.022c0,0 -1.391,-0.755 -1.391,-0.755c-1.461,-0.787 -1.465,-0.781 -2.937,-1.545l-0.159,-0.079c-1.096,-0.57 -1.887,-0.954 -3.462,-1.712c-1.487,-0.715 -1.49,-0.708 -2.988,-1.402l-3.264,-1.45l-1.109,-0.456l-1.245,-0.53l-1.128,-0.443l-1.104,-0.45l-0.935,-0.351c-1.764,-0.693 -3.559,-1.319 -5.347,-1.957c0,0 -1.837,-0.61 -1.837,-0.61l-0.791,-0.268l-1.179,-0.366c-1.163,-0.374 -2.515,-0.773 -2.515,-0.773c-1.879,-0.57 -3.78,-1.075 -5.678,-1.599l-1.713,-0.413c-0.843,-0.211 -1.688,-0.409 -2.532,-0.613l-1.225,-0.265c-1.438,-0.323 -3.201,-0.673 -3.201,-0.673c-1.21,-0.242 -1.21,-0.242 -2.423,-0.465c-0.874,-0.16 -1.748,-0.317 -2.621,-0.477l-1.226,-0.184c-0.97,-0.162 -1.945,-0.295 -2.917,-0.441l-1.245,-0.16l-0.968,-0.129c0,0 -1.706,-0.215 -1.706,-0.215c0,0 -1.604,-0.165 -1.604,-0.165l-2.094,-0.203c-0.267,-0.022 -0.266,-0.023 -0.532,-0.049l-2.278,-0.184l-2.649,-0.171l-1.235,-0.059c-0.473,-0.023 -0.946,-0.05 -1.419,-0.069c-0.195,-0.008 -2.323,-0.074 -2.549,-0.081l-1.388,-0.022l-1.245,-0.02l-77.909,0c0.045,-1.114 0.083,-2.107 0.083,-2.107c0.037,-1.75 0.073,-3.5 0.11,-5.25l0.006,-0.565l0,-126.328l268.844,0c59.725,0 108.214,48.489 108.214,108.214l0,1890.85c0,59.724 -48.488,108.212 -108.214,108.213Zm-1257.41,-1713.12l0.429,1.555l-0.429,-1.555l0,0Zm1065.06,-14.656l-911.25,0c-15.73,0 -28.5,-12.77 -28.5,-28.5l0,-57c0,-15.729 12.77,-28.5 28.5,-28.5l911.25,0c15.73,0 28.5,12.771 28.5,28.5l0,57c0,15.729 -12.77,28.5 -28.5,28.5Zm-261.613,-245.25l-388.024,0c-0.393,-3.318 -0.601,-6.692 -0.612,-10.113l-0.001,-0.015c-0.065,-41.374 -0.176,-82.748 -0.138,-124.122l0.138,0l0,-51.484c0,-48.381 39.279,-87.661 87.661,-87.661l213.928,0c48.382,0 87.661,39.28 87.661,87.661l0,51.484l0.057,0c0.027,41.27 0.008,82.541 -0.057,123.811l0,0.028l0,0.099l0,0.184l-0.001,0.016c-0.011,3.42 -0.219,6.793 -0.612,10.112Z" style="fill:#f8e032;"/></svg>