<?xml version="1.0" encoding="UTF-8" standalone="no"?><!DOCTYPE svg PUBLIC "-//W3C//DTD SVG 1.1//EN" "http://www.w3.org/Graphics/SVG/1.1/DTD/svg11.dtd"><svg width="100%" height="100%" viewBox="0 0 1313 1479" version="1.1" xmlns="http://www.w3.org/2000/svg" xmlns:xlink="http://www.w3.org/1999/xlink" xml:space="preserve" xmlns:serif="http://www.serif.com/" style="fill-rule:evenodd;clip-rule:evenodd;stroke-linejoin:round;stroke-miterlimit:1.41421;"><g><path d="M937.678,0l374.93,360.04l-374.93,0l0,-360.04Z" style="fill:#fff;"/><path d="M875.18,422.541l437.428,0l0,1056.37l-1312.61,0l0,-1478.91l875.18,0l0,422.541Zm-204.952,-25.001c235.827,0 427.288,191.461 427.288,427.288c0,235.827 -191.461,427.288 -427.288,427.288c-235.826,0 -427.287,-191.461 -427.287,-427.288c0,-235.827 191.461,-427.288 427.287,-427.288Z" style="fill:#fff;"/><path d="M586.884,645.532c0,-34.375 27.907,-62.283 62.282,-62.283l208.815,0c34.374,0 62.282,27.908 62.282,62.283l0,124.564c0,34.374 -27.908,62.282 -62.282,62.282l-23.132,0l18.738,76.012l-106.486,-76.012l-97.935,0c-34.375,0 -62.282,-27.908 -62.282,-62.282l0,-124.564Z" style="fill:#fff;"/><path d="M559.203,741.266l0,29.24c0,0 -0.003,0.028 0.009,0.816c0.004,0.271 0.008,0.542 0.012,0.813c0,0 0.022,0.72 0.044,1.428c0,0 0.044,1.018 0.044,1.018c0,0 0.014,0.275 0.109,1.829c0,0 0.264,3.043 0.264,3.043c0,0 0.158,1.416 0.158,1.416l0.156,1.216c0,0 0.027,0.213 0.167,1.199c0,0 0.127,0.824 0.127,0.824c0.031,0.193 0.061,0.387 0.092,0.581c0,0 0.355,2.008 0.355,2.008c0,0 0.15,0.802 0.15,0.802c0,0 0.215,1.044 0.376,1.814c0,0 0.36,1.569 0.36,1.569c0,0 0.235,0.976 0.235,0.976c0,0 0.067,0.269 0.467,1.796l0.214,0.787l0.228,0.788c0,0 0.508,1.671 0.901,2.913c0,0 0.23,0.68 0.462,1.366c0,0 0.267,0.758 0.47,1.328c0,0 0.036,0.103 0.285,0.766c0.096,0.255 0.193,0.51 0.289,0.765c0,0 0.039,0.107 0.298,0.761c0.1,0.252 0.2,0.505 0.302,0.756c0.215,0.534 -0.009,-0.012 0.554,1.337c0,0 0.326,0.749 0.326,0.749c0,0 0.341,0.775 0.341,0.775c0.468,1.058 0.969,2.101 1.475,3.141c0,0 0.389,0.776 0.389,0.776c0.087,0.17 0.173,0.342 0.261,0.512c0.391,0.76 0.088,0.185 0.578,1.105c0.512,0.963 1.396,2.523 1.396,2.523c0.19,0.329 0.341,0.592 0.529,0.915c0,0 0.643,1.07 0.643,1.07l0.298,0.484c0.668,1.096 1.443,2.264 1.443,2.264c0,0 0.73,1.09 0.73,1.09c0.529,0.786 1.177,1.689 1.177,1.689c0.256,0.355 0.377,0.527 0.621,0.861c0,0 1.394,1.852 1.394,1.852c0,0 0.65,0.838 0.65,0.838c0,0 0.283,0.35 0.283,0.35c0.427,0.534 0.86,1.061 1.295,1.586c0,0 0.173,0.203 0.41,0.484c0.266,0.315 0.536,0.626 0.804,0.938c0,0 0.882,0.993 0.882,0.993c0.262,0.29 0.406,0.447 0.895,0.984c0,0 0.623,0.664 1.157,1.223c0,0 0.296,0.307 0.559,0.576c0,0 0.498,0.503 0.881,0.89c0,0 0.628,0.616 0.628,0.616c0.649,0.634 1.052,1.018 2.128,2.01l0.401,0.364c0,0 0.913,0.814 1.599,1.411l0.415,0.354c0,0 0.655,0.551 1.216,1.016l0.684,0.554c0,0 0.932,0.738 1.632,1.285l0.482,0.366c0,0 0.676,0.503 1.224,0.911l0.45,0.328c0,0 0.396,0.281 0.899,0.638l0.536,0.374c0,0 0.647,0.441 0.647,0.441l0.389,0.263l0.389,0.26c0.372,0.248 0.594,0.394 1.227,0.802c0,0 0.414,0.264 1.216,0.766c0,0 1.15,0.697 1.15,0.697c1.17,0.696 2.743,1.575 2.743,1.575l1.18,0.64c0,0 0.769,0.403 0.769,0.403c1.036,0.537 0.405,0.209 1.452,0.742l0.429,0.21c0,0 1.042,0.501 1.042,0.501c1.592,0.753 3.199,1.459 4.835,2.121c0,0 1.031,0.413 1.791,0.701c0,0 1.714,0.63 1.714,0.63c1.272,0.453 2.672,0.903 2.672,0.903c0.612,0.198 0.982,0.315 2.031,0.626c0.783,0.232 1.919,0.543 1.919,0.543c1.435,0.388 2.879,0.731 4.337,1.06c0,0 1.25,0.262 2.191,0.448c0,0 0.422,0.08 0.884,0.165c0,0 0.915,0.161 1.614,0.277c0,0 0.82,0.13 0.82,0.13l0.599,0.09c0,0 0.768,0.109 1.423,0.196c0,0 1.095,0.135 1.095,0.135c1.042,0.122 2.088,0.224 3.134,0.314c0,0 1.734,0.124 1.734,0.124c1.783,0.11 3.585,0.166 5.389,0.179l89.379,0l15.337,10.949l0,57.105c0,34.374 -27.907,62.282 -62.282,62.282l-97.935,0l-106.486,76.013l18.738,-76.013l-23.132,0c-34.375,0 -62.282,-27.908 -62.282,-62.282l0,-124.564c0,-34.375 27.907,-62.282 62.282,-62.282l76.727,0Z" style="fill:#fff;"/></g></svg>