<?xml version="1.0" encoding="UTF-8" standalone="no"?><!DOCTYPE svg PUBLIC "-//W3C//DTD SVG 1.1//EN" "http://www.w3.org/Graphics/SVG/1.1/DTD/svg11.dtd"><svg width="100%" height="100%" viewBox="0 0 225 72" version="1.1" xmlns="http://www.w3.org/2000/svg" xmlns:xlink="http://www.w3.org/1999/xlink" xml:space="preserve" xmlns:serif="http://www.serif.com/" style="fill-rule:evenodd;clip-rule:evenodd;stroke-linejoin:round;stroke-miterlimit:1.41421;"><rect x="0" y="9.462" width="45.197" height="45.197" style="fill:#fff;"/><rect x="58.523" y="9.462" width="45.197" height="45.197" style="fill:#fff;"/><rect x="119.163" y="9.462" width="45.197" height="45.197" style="fill:#fff;"/><rect x="179.803" y="9.462" width="45.197" height="45.197" style="fill:#fff;"/><rect x="4.81" y="58.741" width="7.387" height="3.046" style="fill:#fff;"/><rect x="63.334" y="58.741" width="7.387" height="3.046" style="fill:#fff;"/><rect x="123.974" y="58.741" width="7.387" height="3.046" style="fill:#fff;"/><rect x="189.312" y="58.741" width="7.387" height="3.046" style="fill:#fff;"/><rect x="14.207" y="58.741" width="7.387" height="3.046" style="fill:#fff;"/><path d="M80.117,61.788l-7.387,0l0,-3.047l7.387,0c0,1.016 0,2.031 0,3.047Zm-6.879,-2.539l0,2.031l6.371,0l0,-2.031c-2.124,0 -4.247,0 -6.371,0Z" style="fill:#fff;fill-rule:nonzero;"/><rect x="133.37" y="58.741" width="7.387" height="3.046" style="fill:#fff;"/><path d="M206.095,61.788l-7.387,0l0,-3.047l7.387,0c0,1.016 0,2.031 0,3.047Zm-6.879,-2.539l0,2.031l6.371,0l0,-2.031c-2.123,0 -4.247,0 -6.371,0Z" style="fill:#fff;fill-rule:nonzero;"/><path d="M30.99,61.788l-7.387,0l0,-3.047l7.387,0c0,1.016 0,2.031 0,3.047Zm-6.879,-2.539l0,2.031l6.371,0l0,-2.031c-2.124,0 -4.247,0 -6.371,0Z" style="fill:#fff;fill-rule:nonzero;"/><path d="M89.513,61.788l-7.386,0l0,-3.047l7.386,0c0,1.016 0,2.031 0,3.047Zm-6.879,-2.539l0,2.031l6.372,0l0,-2.031c-2.124,0 -4.248,0 -6.372,0Z" style="fill:#fff;fill-rule:nonzero;"/><path d="M150.153,61.788l-7.386,0l0,-3.047l7.386,0c0,1.016 0,2.031 0,3.047Zm-6.879,-2.539l0,2.031l6.371,0l0,-2.031c-2.123,0 -4.247,0 -6.371,0Z" style="fill:#fff;fill-rule:nonzero;"/><path d="M215.491,61.788l-7.386,0l0,-3.047l7.386,0c0,1.016 0,2.031 0,3.047Zm-6.878,-2.539l0,2.031l6.371,0l0,-2.031c-2.124,0 -4.248,0 -6.371,0Z" style="fill:#fff;fill-rule:nonzero;"/><path d="M40.387,61.788l-7.387,0l0,-3.047l7.387,0c0,1.016 0,2.031 0,3.047Zm-6.88,-2.539l0,2.031l6.371,0l0,-2.031c-2.123,0 -4.247,0 -6.371,0Z" style="fill:#fff;fill-rule:nonzero;"/><path d="M98.91,61.788l-7.387,0l0,-3.047l7.387,0c0,1.016 0,2.031 0,3.047Zm-6.879,-2.539l0,2.031l6.371,0l0,-2.031c-2.124,0 -4.247,0 -6.371,0Z" style="fill:#fff;fill-rule:nonzero;"/><path d="M159.55,61.788l-7.387,0l0,-3.047l7.387,0c0,1.016 0,2.031 0,3.047Zm-6.879,-2.539l0,2.031l6.371,0l0,-2.031c-2.124,0 -4.248,0 -6.371,0Z" style="fill:#fff;fill-rule:nonzero;"/></svg>