<?xml version="1.0" encoding="UTF-8" standalone="no"?><!DOCTYPE svg PUBLIC "-//W3C//DTD SVG 1.1//EN" "http://www.w3.org/Graphics/SVG/1.1/DTD/svg11.dtd"><svg width="100%" height="100%" viewBox="0 0 2232 197" version="1.1" xmlns="http://www.w3.org/2000/svg" xmlns:xlink="http://www.w3.org/1999/xlink" xml:space="preserve" xmlns:serif="http://www.serif.com/" style="fill-rule:evenodd;clip-rule:evenodd;stroke-linejoin:round;stroke-miterlimit:1.41421;"><path d="M173.904,97.607c0,16.312 -3.025,30.387 -9.077,42.227c-6.05,11.839 -14.031,21.573 -23.941,29.203c-9.91,7.629 -21.091,13.242 -33.545,16.838c-12.452,3.595 -25.081,5.393 -37.884,5.393l-69.457,0l0,-186.269l67.352,0c13.154,0 26.133,1.535 38.937,4.604c12.804,3.07 24.205,8.156 34.202,15.26c9.998,7.103 18.066,16.618 24.205,28.545c6.138,11.927 9.208,26.66 9.208,44.199Zm-46.831,0c0,-10.523 -1.71,-19.249 -5.13,-26.177c-3.42,-6.929 -7.981,-12.453 -13.681,-16.575c-5.7,-4.122 -12.189,-7.06 -19.468,-8.814c-7.279,-1.754 -14.777,-2.63 -22.495,-2.63l-22.363,0l0,108.919l21.311,0c8.069,0 15.83,-0.921 23.284,-2.762c7.454,-1.842 14.031,-4.868 19.731,-9.076c5.701,-4.21 10.261,-9.822 13.681,-16.839c3.42,-7.015 5.13,-15.697 5.13,-26.046Z" style="fill:#fff;fill-rule:nonzero;"/><path d="M396.735,97.344c0,14.733 -2.543,28.195 -7.63,40.384c-5.086,12.191 -12.145,22.626 -21.178,31.309c-9.033,8.682 -19.776,15.39 -32.229,20.126c-12.453,4.736 -25.959,7.104 -40.516,7.104c-14.558,0 -28.019,-2.368 -40.385,-7.104c-12.365,-4.736 -23.064,-11.444 -32.097,-20.126c-9.032,-8.683 -16.092,-19.118 -21.179,-31.309c-5.086,-12.189 -7.629,-25.651 -7.629,-40.384c0,-14.909 2.543,-28.37 7.629,-40.385c5.087,-12.014 12.147,-22.23 21.179,-30.65c9.033,-8.419 19.732,-14.908 32.097,-19.468c12.366,-4.56 25.827,-6.841 40.385,-6.841c14.558,0 28.063,2.281 40.516,6.841c12.453,4.56 23.196,11.049 32.229,19.468c9.033,8.42 16.092,18.636 21.178,30.65c5.087,12.015 7.63,25.476 7.63,40.385Zm-48.145,0c0,-8.068 -1.316,-15.61 -3.947,-22.626c-2.631,-7.016 -6.271,-13.023 -10.918,-18.022c-4.648,-4.999 -10.261,-8.944 -16.838,-11.839c-6.577,-2.894 -13.813,-4.341 -21.705,-4.341c-7.893,0 -15.084,1.447 -21.574,4.341c-6.489,2.895 -12.102,6.84 -16.838,11.839c-4.735,4.999 -8.375,11.006 -10.918,18.022c-2.543,7.016 -3.815,14.558 -3.815,22.626c0,8.419 1.316,16.18 3.947,23.284c2.631,7.103 6.27,13.198 10.918,18.285c4.648,5.086 10.216,9.076 16.706,11.971c6.49,2.893 13.681,4.341 21.574,4.341c7.892,0 15.084,-1.448 21.573,-4.341c6.49,-2.895 12.103,-6.885 16.838,-11.971c4.736,-5.087 8.419,-11.182 11.05,-18.285c2.631,-7.104 3.946,-14.864 3.946,-23.284Z" style="fill:#fff;fill-rule:nonzero;"/><path d="M514.335,43.411l0,147.857l-44.989,0l0,-147.857l-52.618,0l0,-38.412l150.226,0l0,38.412l-52.619,0Z" style="fill:#fff;fill-rule:nonzero;"/><path d="M724.867,191.268l-14.469,-36.57l-72.088,0l-13.681,36.57l-48.934,0l78.138,-186.269l43.673,0l77.349,186.269l-49.988,0Zm-49.987,-136.545l-23.678,63.932l46.83,-0.001l-23.152,-63.931Z" style="fill:#fff;fill-rule:nonzero;"/><path d="M859.193,191.268l0,-36.833l72.613,-65.773c4.56,-4.385 8.243,-8.858 11.05,-13.418c2.806,-4.56 4.209,-9.646 4.209,-15.259c0,-6.665 -2.105,-12.059 -6.314,-16.18c-4.21,-4.122 -9.822,-6.183 -16.838,-6.183c-7.366,0 -13.374,2.588 -18.022,7.761c-4.647,5.174 -7.41,11.971 -8.287,20.391l-42.358,-5.789c1.052,-9.471 3.64,-17.89 7.761,-25.256c4.122,-7.367 9.34,-13.637 15.654,-18.812c6.314,-5.174 13.55,-9.12 21.705,-11.838c8.156,-2.719 16.794,-4.079 25.915,-4.079c8.594,0 16.926,1.14 24.994,3.421c8.068,2.28 15.259,5.788 21.573,10.523c6.315,4.736 11.357,10.7 15.128,17.891c3.771,7.191 5.656,15.609 5.656,25.257c0,6.664 -0.876,12.672 -2.631,18.021c-1.753,5.349 -4.165,10.305 -7.234,14.865c-3.07,4.56 -6.578,8.814 -10.524,12.759c-3.947,3.947 -8.024,7.85 -12.234,11.709l-43.147,38.411l76.034,0l0,38.411l-134.703,0Z" style="fill:#fff;fill-rule:nonzero;"/><path d="M1143.77,29.326l45.678,0c8.552,0 17.137,1.425 25.754,4.275c8.618,2.851 16.392,7.16 23.325,12.927c6.932,5.766 12.537,12.958 16.814,21.575c4.275,8.617 6.414,18.627 6.414,30.031c0,11.532 -2.139,21.575 -6.414,30.127c-4.277,8.553 -9.882,15.712 -16.814,21.479c-6.933,5.766 -14.707,10.074 -23.325,12.925c-8.617,2.851 -17.202,4.277 -25.754,4.277l-45.678,0l0,-137.616Zm13.995,125.176l27.796,0c10.366,0 19.404,-1.62 27.114,-4.86c7.71,-3.239 14.092,-7.483 19.146,-12.731c5.054,-5.248 8.844,-11.241 11.371,-17.98c2.527,-6.738 3.791,-13.671 3.791,-20.797c0,-7.127 -1.264,-14.06 -3.791,-20.798c-2.527,-6.738 -6.317,-12.732 -11.371,-17.98c-5.054,-5.248 -11.436,-9.491 -19.146,-12.731c-7.71,-3.24 -16.748,-4.86 -27.114,-4.86l-27.796,0l0,112.737Z" style="fill:#fff;fill-rule:nonzero;"/><path d="M1289.24,166.942l-15.356,0l59.478,-137.616l13.607,0l48.12,111.764l-12.052,8.941l-7.69,-19.243l-71.14,0l-14.967,36.154Zm20.215,-48.983l60.645,0l-30.323,-73.083l-30.322,73.083Z" style="fill:#fff;fill-rule:nonzero;"/><path d="M1458.26,51.484c-2.981,-4.147 -6.803,-7.484 -11.468,-10.011c-4.665,-2.526 -10.302,-3.789 -16.911,-3.789c-3.369,0 -6.803,0.518 -10.302,1.555c-3.498,1.036 -6.673,2.624 -9.524,4.761c-2.851,2.138 -5.151,4.827 -6.9,8.067c-1.75,3.239 -2.624,7.062 -2.624,11.468c0,4.406 0.842,8.034 2.527,10.885c1.684,2.851 3.92,5.28 6.706,7.289c2.786,2.008 5.961,3.66 9.525,4.957c3.563,1.296 7.288,2.591 11.176,3.887c4.794,1.555 9.621,3.24 14.48,5.054c4.86,1.814 9.234,4.179 13.121,7.094c3.887,2.916 7.062,6.609 9.524,11.079c2.462,4.471 3.693,10.14 3.693,17.008c0,6.868 -1.328,12.796 -3.985,17.785c-2.656,4.989 -6.09,9.103 -10.302,12.343c-4.211,3.239 -9.005,5.636 -14.383,7.192c-5.378,1.555 -10.787,2.332 -16.23,2.332c-4.147,0 -8.294,-0.421 -12.44,-1.263c-4.146,-0.843 -8.099,-2.106 -11.856,-3.791c-3.759,-1.684 -7.257,-3.822 -10.497,-6.414c-3.24,-2.591 -6.09,-5.571 -8.553,-8.941l12.052,-8.941c2.981,4.924 7.16,9.038 12.537,12.343c5.378,3.304 11.695,4.956 18.951,4.956c3.499,0 7.063,-0.551 10.691,-1.652c3.628,-1.102 6.9,-2.786 9.816,-5.054c2.916,-2.267 5.313,-5.053 7.191,-8.358c1.879,-3.304 2.819,-7.159 2.819,-11.565c0,-4.795 -0.94,-8.78 -2.819,-11.954c-1.878,-3.175 -4.373,-5.831 -7.483,-7.969c-3.11,-2.138 -6.674,-3.92 -10.691,-5.345c-4.017,-1.426 -8.228,-2.851 -12.633,-4.277c-4.536,-1.425 -9.006,-3.045 -13.413,-4.859c-4.405,-1.814 -8.358,-4.179 -11.856,-7.095c-3.499,-2.915 -6.318,-6.512 -8.455,-10.787c-2.138,-4.277 -3.208,-9.525 -3.208,-15.744c0,-6.609 1.328,-12.311 3.985,-17.106c2.656,-4.794 6.123,-8.746 10.399,-11.856c4.276,-3.111 9.006,-5.378 14.19,-6.804c5.183,-1.425 10.301,-2.137 15.355,-2.137c9.329,0 17.299,1.651 23.908,4.956c6.608,3.304 11.597,7.225 14.966,11.76l-11.079,8.941Z" style="fill:#fff;fill-rule:nonzero;"/><path d="M1491.41,29.326l13.995,0l0,59.672l75.029,0l0,-59.672l13.994,0l0,137.616l-13.994,0l0,-65.115l-75.029,0l0,65.115l-13.995,0l0,-137.616Z" style="fill:#fff;fill-rule:nonzero;"/><path d="M1580.36,29.326l41.014,0c5.183,0 10.431,0.55 15.744,1.651c5.313,1.102 10.075,2.981 14.286,5.637c4.211,2.657 7.646,6.253 10.302,10.788c2.657,4.535 3.985,10.237 3.985,17.105c0,7.257 -2.203,13.574 -6.609,18.952c-4.405,5.377 -10.302,8.908 -17.688,10.593l0,0.389c8.942,1.036 16.36,4.502 22.256,10.399c5.896,5.895 8.844,13.897 8.844,24.005c0,5.701 -1.199,10.917 -3.596,15.646c-2.398,4.731 -5.799,8.748 -10.204,12.051c-4.407,3.305 -9.784,5.865 -16.134,7.678c-6.349,1.814 -13.476,2.722 -21.381,2.722l-40.818,0l0,-137.616Zm13.994,60.255l28.185,0c3.369,0 6.771,-0.389 10.204,-1.166c3.435,-0.777 6.577,-2.106 9.428,-3.984c2.851,-1.88 5.151,-4.374 6.9,-7.484c1.749,-3.11 2.624,-6.933 2.624,-11.468c0,-4.406 -0.875,-8.132 -2.624,-11.177c-1.749,-3.045 -4.115,-5.539 -7.094,-7.483c-2.981,-1.944 -6.48,-3.337 -10.497,-4.179c-4.017,-0.842 -8.293,-1.263 -12.828,-1.263l-24.297,0l0,48.204Zm-0.001,65.31l26.047,0c5.054,0 9.88,-0.486 14.48,-1.458c4.601,-0.972 8.618,-2.527 12.052,-4.665c3.434,-2.139 6.187,-4.925 8.261,-8.358c2.073,-3.435 3.109,-7.548 3.109,-12.343c0,-9.071 -3.077,-15.842 -9.232,-20.312c-6.155,-4.471 -14.87,-6.706 -26.144,-6.706l-28.572,0l-0.001,53.842Z" style="fill:#fff;fill-rule:nonzero;"/><path d="M1833.78,98.134c0,10.496 -1.814,20.149 -5.443,28.961c-3.628,8.812 -8.65,16.424 -15.064,22.839c-6.414,6.414 -13.995,11.435 -22.741,15.064c-8.747,3.628 -18.239,5.442 -28.476,5.442c-10.237,0 -19.729,-1.814 -28.475,-5.442c-8.748,-3.629 -16.328,-8.65 -22.743,-15.064c-6.414,-6.415 -11.435,-14.027 -15.063,-22.839c-3.629,-8.812 -5.442,-18.465 -5.442,-28.961c0,-10.497 1.813,-20.151 5.442,-28.962c3.628,-8.812 8.649,-16.424 15.063,-22.839c6.415,-6.414 13.995,-11.436 22.743,-15.064c8.746,-3.628 18.238,-5.442 28.475,-5.442c10.237,0 19.729,1.814 28.476,5.442c8.746,3.628 16.327,8.65 22.741,15.064c6.414,6.415 11.436,14.027 15.064,22.839c3.629,8.811 5.443,18.466 5.443,28.962Zm-14.773,0c0,-8.034 -1.295,-15.68 -3.887,-22.937c-2.591,-7.256 -6.35,-13.638 -11.273,-19.145c-4.925,-5.507 -10.918,-9.881 -17.98,-13.121c-7.062,-3.239 -14.999,-4.859 -23.811,-4.859c-8.812,0 -16.748,1.62 -23.81,4.859c-7.063,3.24 -13.056,7.614 -17.98,13.121c-4.925,5.507 -8.682,11.889 -11.274,19.145c-2.591,7.257 -3.887,14.903 -3.887,22.937c0,8.034 1.296,15.679 3.887,22.936c2.592,7.256 6.349,13.606 11.274,19.048c4.924,5.443 10.917,9.784 17.98,13.023c7.062,3.24 14.998,4.859 23.81,4.859c8.812,0 16.749,-1.619 23.811,-4.859c7.062,-3.239 13.055,-7.58 17.98,-13.023c4.923,-5.442 8.682,-11.792 11.273,-19.048c2.592,-7.257 3.887,-14.902 3.887,-22.936Z" style="fill:#fff;fill-rule:nonzero;"/><path d="M1853.42,166.942l-15.355,0l59.479,-137.616l13.605,0l59.09,137.616l-15.55,0l-15.161,-36.154l-71.141,0l-14.967,36.154Zm20.215,-48.983l60.645,0l-30.322,-73.083l-30.323,73.083Z" style="fill:#fff;fill-rule:nonzero;"/><path d="M2004.26,166.942l-13.995,0l0,-137.616l40.43,0c6.738,0 12.99,0.647 18.756,1.943c5.767,1.296 10.756,3.402 14.968,6.317c4.211,2.916 7.482,6.706 9.815,11.371c2.332,4.665 3.499,10.367 3.499,17.105c0,5.054 -0.907,9.654 -2.721,13.8c-1.815,4.147 -4.277,7.743 -7.386,10.788c-3.111,3.045 -6.804,5.475 -11.08,7.289c-4.276,1.814 -8.941,2.98 -13.994,3.499l40.235,65.504l-17.105,0l-38.097,-64.338l-23.325,0l0,64.338Zm0,-76.389l24.297,0c11.273,0 19.955,-2.041 26.046,-6.123c6.09,-4.082 9.135,-10.205 9.135,-18.368c0,-4.536 -0.843,-8.359 -2.527,-11.468c-1.685,-3.11 -4.017,-5.637 -6.998,-7.581c-2.979,-1.943 -6.608,-3.369 -10.884,-4.276c-4.276,-0.907 -9.006,-1.36 -14.19,-1.36l-24.879,0l0,49.176Z" style="fill:#fff;fill-rule:nonzero;"/><path d="M2113.95,29.326l45.677,0c8.553,0 17.138,1.425 25.755,4.275c8.617,2.851 16.392,7.16 23.325,12.927c6.933,5.766 12.537,12.958 16.813,21.575c4.277,8.617 6.414,18.627 6.414,30.031c0,11.532 -2.137,21.575 -6.414,30.127c-4.276,8.553 -9.88,15.712 -16.813,21.479c-6.933,5.766 -14.708,10.074 -23.325,12.925c-8.617,2.851 -17.202,4.277 -25.755,4.277l-45.677,0l0,-137.616Zm13.995,125.176l27.795,0c10.367,0 19.405,-1.62 27.115,-4.86c7.711,-3.239 14.092,-7.483 19.146,-12.731c5.053,-5.248 8.844,-11.241 11.37,-17.98c2.527,-6.738 3.791,-13.671 3.791,-20.797c0,-7.127 -1.264,-14.06 -3.791,-20.798c-2.526,-6.738 -6.317,-12.732 -11.37,-17.98c-5.054,-5.248 -11.436,-9.491 -19.146,-12.731c-7.71,-3.24 -16.749,-4.86 -27.115,-4.86l-27.795,0l0,112.737Z" style="fill:#fff;fill-rule:nonzero;"/></svg>