<?xml version="1.0" encoding="UTF-8" standalone="no"?><!DOCTYPE svg PUBLIC "-//W3C//DTD SVG 1.1//EN" "http://www.w3.org/Graphics/SVG/1.1/DTD/svg11.dtd"><svg width="100%" height="100%" viewBox="0 0 340 340" version="1.1" xmlns="http://www.w3.org/2000/svg" xmlns:xlink="http://www.w3.org/1999/xlink" xml:space="preserve" xmlns:serif="http://www.serif.com/" style="fill-rule:evenodd;clip-rule:evenodd;stroke-linejoin:round;stroke-miterlimit:1.41421;"><path d="M56.94,0.926c2.311,0.019 4.62,0.223 6.931,0.391c64.805,4.719 128.982,3.989 194.622,0.105c7.068,-0.417 14.173,-0.966 21.162,-1.361c21.808,-1.054 44.172,11.604 53.944,32.103c4.172,8.753 6.026,18.568 5.363,28.25c-4.979,69.564 -5.487,140.448 -0.711,210.453c0.342,5.004 0.916,10.011 0.716,14.979c-0.968,24.018 -18.475,46.696 -43.127,52.629c-7.77,1.869 -16.03,1.521 -23.744,1.065c-68.332,-4.05 -137.527,-4.457 -204.247,-0.451c-6.513,0.391 -12.978,0.977 -19.509,0.004c0,0 -3.285,-0.509 -5.925,-1.193c-24.536,-6.356 -43.266,-30.192 -42.356,-56.65c0.074,-2.124 0.265,-4.25 0.411,-6.378c4.677,-68.307 4.664,-136.485 0.221,-205.054c-0.11,-1.691 -0.222,-3.381 -0.337,-5.072c-0.242,-3.555 -0.483,-7.105 -0.275,-10.643c1.306,-22.184 16.724,-43.338 39.144,-50.481c0,0 3.071,-0.958 5.677,-1.502c3.958,-0.827 8.014,-1.227 12.04,-1.194Zm80.047,310.088c2.123,-1.874 3.756,-4.319 4.652,-7.146c2.043,-6.45 -0.2,-13.488 -5.6,-17.566c-32.18,-24.105 -59.869,-51.449 -82.939,-82.122c-4.091,-5.391 -11.132,-7.623 -17.58,-5.571c-2.46,0.782 -4.631,2.122 -6.387,3.857c-0.464,23.646 -1.464,47.229 -3.017,70.666c-0.116,1.742 -0.234,3.484 -0.356,5.226c-0.548,7.863 0.509,16.013 5.717,23.148c3.586,4.914 8.597,8.654 14.299,10.793c3.472,1.303 7.235,1.948 11.002,1.918c1.725,-0.014 3.481,-0.177 5.234,-0.287c24.898,-1.564 49.974,-2.515 74.975,-2.916Zm-51.708,-269.824c-5.761,-6.708 -14.058,-10.71 -22.894,-11.045c-8.836,-0.334 -17.411,3.029 -23.664,9.282c-0.01,-0.009 -0.01,-0.008 -0.011,-0.008c-6.171,6.172 -9.509,14.623 -9.22,23.347c0.288,8.722 4.177,16.935 10.743,22.685c76.297,67.222 146.773,139.1 213.538,213.948c5.813,6.54 14.066,10.393 22.812,10.65c8.746,0.256 17.211,-3.105 23.398,-9.292c0.005,0.003 0.005,0.003 0.005,0.003c6.283,-6.283 9.674,-14.894 9.363,-23.774c-0.312,-8.88 -4.298,-17.232 -11.006,-23.06c-75.599,-65.979 -147.055,-136.424 -213.064,-212.736Zm224.513,96.288c0.526,-23.709 1.601,-47.367 3.201,-70.89c0.422,-6.206 1.142,-12.462 -0.479,-18.35c-3.473,-12.616 -15.682,-22.482 -29.347,-22.779c-2.139,-0.046 -4.292,0.179 -6.442,0.326c-25.165,1.701 -50.257,2.958 -75.331,3.651c-1.746,1.762 -3.093,3.943 -3.877,6.416c-2.043,6.45 0.2,13.488 5.6,17.565c32.18,24.106 59.869,51.45 82.939,82.123c4.09,5.391 11.131,7.622 17.581,5.571c2.352,-0.748 4.44,-2.007 6.155,-3.633Z" style="fill:#fff;fill-rule:nonzero;"/></svg>